<svg width="114" height="89" viewBox="0 0 114 89" fill="none" xmlns="http://www.w3.org/2000/svg">
<g clip-path="url(#clip0)">
<path d="M18.2587 46.9174C18.2587 46.9174 27.3534 48.576 33.9101 39.8685C33.9101 39.8685 28.411 34.5819 24.6039 35.7221C20.7968 36.8624 18.2587 43.6003 18.2587 43.6003V46.9174Z" fill="#A0616A"/>
<path opacity="0.1" d="M18.2587 46.9174C18.2587 46.9174 27.3534 48.576 33.9101 39.8685C33.9101 39.8685 28.411 34.5819 24.6039 35.7221C20.7968 36.8624 18.2587 43.6003 18.2587 43.6003V46.9174Z" fill="black"/>
<path d="M22.3831 39.8685L31.6893 58.6309L33.9101 57.4907L24.2866 39.8685H22.3831Z" fill="#504F60"/>
<path d="M33.9101 39.8685C32.2246 39.885 30.5476 40.1039 28.9165 40.5205C26.666 41.1026 24.5262 42.0372 22.5798 43.2882C19.7657 45.0847 18.2587 46.9174 18.2587 46.9174C11.5487 35.3572 13.0494 14.5029 13.1752 12.9096V12.9086C13.1773 12.8837 13.1784 12.863 13.1794 12.8485C13.1815 12.8246 13.1826 12.8132 13.1826 12.8132C17.6242 12.8132 33.9101 39.8685 33.9101 39.8685Z" fill="#A0616A"/>
<path d="M113.803 62.3409L103.495 65.0579C103.495 65.0579 87.6324 65.3689 82.1333 70.0335C76.6341 74.6982 60.6655 74.1799 60.2425 74.1799C59.8195 74.1799 53.8973 69.1006 43.1106 74.3873C32.3238 79.6739 19.422 76.3568 19.422 76.3568C19.422 76.3568 5.99141 81.8508 2.18432 79.9849C-1.62277 78.119 0.703783 75.6312 0.703783 75.6312C0.703783 75.6312 8.52947 69.7226 2.50158 63.192C-3.52632 56.6614 3.5591 56.6614 3.5591 56.6614H23.9471C25.6111 56.6765 27.2532 56.2895 28.7282 55.5346C30.3209 54.7002 32.1948 54.9666 33.449 55.318C34.5335 55.6201 35.6732 55.6803 36.7844 55.4942C47.0181 53.7931 53.5483 54.2803 56.262 54.6514C57.3913 54.8046 58.5347 54.8321 59.6704 54.7333C63.1285 54.4379 70.3048 53.8108 74.2018 53.3567C75.2742 53.2323 76.098 53.1214 76.5284 53.0333C77.734 52.7866 83.4256 53.874 89.1827 55.3283C95.5448 56.934 101.988 58.9886 102.544 60.1859C103.309 61.8361 110.057 61.9118 113.728 61.8278C113.793 61.8265 113.856 61.8486 113.906 61.8898C113.955 61.9311 113.988 61.9887 113.997 62.0518C114.006 62.1149 113.992 62.1792 113.956 62.2324C113.92 62.2857 113.866 62.3243 113.803 62.3409Z" fill="#EED1D7"/>
<path d="M73.6731 69.9299L71.135 70.4482C71.135 70.4482 61.0885 65.1615 59.7137 66.9237" fill="#CCB2BB"/>
<path d="M71.135 54.7955C71.135 54.7955 54.8491 51.582 48.0809 55.4175L71.135 54.7955Z" fill="#CCB2BB"/>
<path opacity="0.1" d="M58.8815 60.5701C58.8815 60.5701 54.8098 58.9387 54.9881 59.8709C55.1664 60.8031 57.2468 61.7354 57.2468 61.7354C57.2468 61.7354 53.1454 61.3858 53.3238 62.7841C53.3238 62.7841 58.0196 62.6676 57.8413 63.7164C57.6629 64.7651 57.8412 66.1635 58.614 65.8721C59.3867 65.5808 59.8622 62.2015 61.9427 63.8329C64.0231 65.4643 63.7259 62.1432 61.1699 61.8519C61.1699 61.8519 62.5371 60.8614 62.4182 60.3953C62.2993 59.9292 58.8815 60.5701 58.8815 60.5701Z" fill="black"/>
<path d="M58.822 60.3953C58.822 60.3953 54.7503 58.7639 54.9287 59.6961C55.107 60.6283 57.1874 61.5606 57.1874 61.5606C57.1874 61.5606 53.086 61.211 53.2643 62.6093C53.2643 62.6093 57.9601 62.4928 57.7818 63.5416C57.6035 64.5903 57.7818 65.9887 58.5545 65.6973C59.3273 65.406 59.8028 62.0267 61.8832 63.6581C63.9637 65.2895 63.6665 61.9684 61.1105 61.6771C61.1105 61.6771 62.4776 60.6866 62.3587 60.2205C62.2399 59.7544 58.822 60.3953 58.822 60.3953Z" fill="#F89898"/>
<path d="M90.4877 63.6067C90.4877 63.6067 84.6713 61.8445 84.1426 62.1555L90.4877 63.6067Z" fill="#CCB2BB"/>
<path d="M45.3314 65.1615C45.3314 65.1615 53.1571 62.9846 56.1181 64.6432L45.3314 65.1615Z" fill="#CCB2BB"/>
<path d="M58.2861 56.2986C58.2861 56.2986 60.4011 50.1827 64.6312 51.4266C68.8613 52.6705 72.0339 55.884 72.0339 55.884L58.2861 56.9206V56.2986Z" fill="#EED1D7"/>
<path d="M12.2837 63.1401C12.2837 63.1401 15.562 64.4877 21.0612 63.9694C26.5603 63.4511 30.8961 66.6646 30.8961 66.6646" fill="#CCB2BB"/>
<path opacity="0.1" d="M101.924 49.6763C97.7781 56.4492 98.4359 65.609 100.14 72.816C100.711 75.229 101.371 77.7757 100.829 80.4897C100.165 83.8084 97.8557 86.4347 95.5313 87.9471C91.2941 90.7039 86.4919 90.6828 83.0287 87.892C80.0358 85.4802 78.0957 81.238 75.0378 78.958C69.9204 75.1425 62.818 77.5718 56.6282 81.263C52.249 83.8744 47.4253 87.1751 43.4283 85.384C40.6158 84.1237 38.8945 80.4956 38.1169 76.5353C37.7414 74.6232 37.5257 72.5327 36.6309 71.0825C36.0989 70.2203 35.36 69.6479 34.5935 69.1809C27.5936 64.9167 18.0152 68.6582 11.2727 63.8169C6.71906 60.5473 4.18663 53.717 3.41298 46.3905C2.63934 39.064 3.43337 31.2061 4.40542 23.4673C5.09622 17.9677 6.01435 12.0766 8.88707 7.57603C11.926 2.81509 16.6561 0.650909 20.7415 1.04565C24.8269 1.4404 28.3477 4.0552 31.3721 7.25778C35.1521 11.2603 38.5432 16.3884 43.4803 17.6371C46.8425 18.4875 50.5382 17.4168 54.1271 16.7934C60.1269 15.7512 66.0278 15.9635 71.8867 16.2619C77.4956 16.5476 83.1382 16.9201 88.345 18.8811C92.0298 20.2688 94.8359 23.2127 98.268 25.1083C100.505 26.3439 103.043 26.475 105.122 28.1332C107.682 30.1758 109.874 33.976 108.784 38.8227C107.748 43.4307 104.124 46.0816 101.924 49.6763Z" fill="#FFDF6C"/>
<g opacity="0.05">
<path opacity="0.05" d="M25.5985 38.29C25.6245 38.2469 25.6366 38.197 25.6331 38.147C25.6176 38.1936 25.606 38.2415 25.5985 38.29Z" fill="url(#paint0_linear)"/>
</g>
<g opacity="0.05">
<path opacity="0.05" d="M25.5985 38.2186C25.6245 38.1756 25.6366 38.1257 25.6331 38.0756C25.6176 38.1223 25.606 38.1701 25.5985 38.2186Z" fill="url(#paint1_linear)"/>
</g>
<g opacity="0.05">
<path opacity="0.05" d="M31.849 56.1267C31.6198 56.2229 31.0738 56.727 30.3655 57.4504C30.1406 55.9985 29.9949 54.6891 30.0891 54.1446C30.0972 54.0632 30.1259 53.985 30.1727 53.9173C30.5978 53.8888 31.4611 54.9305 32.1509 55.8722C31.9598 56.0222 31.849 56.1267 31.849 56.1267Z" fill="url(#paint2_linear)"/>
</g>
<path d="M43.1499 62.4816C43.1499 62.4816 46.8563 69.6779 47.7829 69.9574C48.7095 70.2369 49.351 69.8177 49.351 69.8177C49.351 69.8177 57.0491 68.4203 55.6235 70.0273C54.1979 71.6342 41.7243 70.6561 41.7243 70.6561L38.5881 63.7392L43.1499 62.4816Z" fill="#EF91A3"/>
<path opacity="0.1" d="M32.5294 62.6214C32.5294 62.6214 38.5168 58.7088 40.1562 58.7088C40.1562 58.7088 42.5796 57.9402 44.0052 63.2502C44.0052 63.2502 39.087 64.0886 39.1583 66.3942L38.2317 64.4379L34.2401 68.7697L29.3932 65.5558L32.5294 62.6214Z" fill="black"/>
<path d="M32.5294 62.4816C32.5294 62.4816 38.5168 58.5691 40.1562 58.5691C40.1562 58.5691 42.5796 57.8005 44.0052 63.1104C44.0052 63.1104 39.087 63.9489 39.1583 66.2545L38.2317 64.2982L34.2401 68.63L29.3932 65.4161L32.5294 62.4816Z" fill="#5D526E"/>
<path d="M39.087 60.5253C38.7306 62.2021 36.8774 62.4816 36.8774 62.4816L34.2401 60.8746C34.2401 60.8746 33.868 58.4677 33.5537 57.0005C33.4332 56.4366 33.3213 56.0111 33.2422 55.914C32.9571 55.5647 37.4476 55.6345 37.4476 55.6345C37.7628 56.1567 38.0497 56.6947 38.3072 57.2464C38.7962 58.2951 39.2773 59.6296 39.087 60.5253Z" fill="#EF91A3"/>
<path d="M27.6826 47.8793L26.1857 54.8661L22.5505 53.9578C22.5505 53.9578 19.2005 51.3727 20.1984 49.7657C20.5248 49.2403 20.6909 48.476 20.7672 47.6858C20.9233 46.0572 20.6973 44.3161 20.6973 44.3161C20.6973 44.3161 24.6889 43.2681 23.9048 46.1326C23.5826 47.3092 24.1621 47.8136 24.9569 48.0002C26.098 48.2678 27.6826 47.8793 27.6826 47.8793Z" fill="#EF91A3"/>
<path opacity="0.1" d="M24.9569 48.0002C24.3898 48.2891 23.7599 48.4393 23.1208 48.4383C22.2405 48.4383 21.393 47.8982 20.733 47.4252C20.8243 46.3901 20.8124 45.3488 20.6973 44.3161C20.6973 44.3161 24.6889 43.2681 23.9048 46.1326C23.5827 47.3092 24.1621 47.8137 24.9569 48.0002Z" fill="black"/>
<path d="M23.1208 48.2985C25.3253 48.2985 27.1123 46.5468 27.1123 44.386C27.1123 42.2251 25.3253 40.4734 23.1208 40.4734C20.9163 40.4734 19.1292 42.2251 19.1292 44.386C19.1292 46.5468 20.9163 48.2985 23.1208 48.2985Z" fill="#EF91A3"/>
<path opacity="0.1" d="M22.8224 52.5477L23.9048 54.0276L24.5208 51.8389C24.7587 50.9633 24.8841 50.0619 24.8943 49.1558C24.8994 48.7716 25.027 48.3985 25.2591 48.0888C26.3699 47.495 27.1945 47.1815 28.5944 47.3224C29.9812 47.4708 31.2986 47.9941 32.3997 48.8339C36.5603 51.9661 38.5168 57.1716 38.5168 57.1716C38.5168 57.1716 32.8146 56.0537 33.0997 57.3114C33.0997 57.3114 30.605 53.3988 30.0347 54.0276C29.4645 54.6564 31.2465 62.9706 31.2465 62.9706L19.5569 63.809L16.4919 55.8441L16.6345 49.9054C16.6345 49.9054 19.6638 48.543 20.3053 48.543C20.5298 48.543 20.4956 48.4664 20.5904 48.8225C20.956 50.1948 21.9792 51.395 22.8224 52.5477Z" fill="black"/>
<path opacity="0.1" d="M38.3072 57.2464C37.3157 57.071 34.5074 56.6232 33.5537 57.0004C33.4332 56.4366 33.3213 56.0111 33.2422 55.914C32.9571 55.5647 37.4476 55.6345 37.4476 55.6345C37.7628 56.1567 38.0497 56.6947 38.3072 57.2464Z" fill="black"/>
<path d="M22.9649 52.4778L24.0474 53.9577L24.6633 51.7691C24.9012 50.8934 25.0267 49.9921 25.0368 49.0859C25.0419 48.7017 25.1695 48.3286 25.4016 48.019C26.5124 47.4251 27.337 47.1117 28.7369 47.2525C30.1237 47.4009 31.4412 47.9243 32.5422 48.764C36.7028 51.8962 38.6593 57.1017 38.6593 57.1017C38.6593 57.1017 32.9571 55.9839 33.2422 57.2415C33.2422 57.2415 30.7475 53.3289 30.1773 53.9577C29.607 54.5865 31.389 62.9007 31.389 62.9007L19.6994 63.7391L16.6345 55.7742L16.777 49.8355C16.777 49.8355 19.8063 48.4731 20.4478 48.4731C20.6724 48.4731 20.6381 48.3965 20.7329 48.7526C21.0986 50.1249 22.1218 51.3251 22.9649 52.4778Z" fill="#DFECFB"/>
<path opacity="0.1" d="M20.3496 47.15C19.949 47.22 19.4825 47.0875 19.2872 46.7376C19.21 46.5639 19.1553 46.3814 19.1243 46.1944C18.9173 45.3985 18.2403 44.8041 17.9069 44.0506C17.3453 42.7813 17.8384 41.3249 18.3327 40.0289C18.5756 39.3921 18.8366 38.7287 19.355 38.277C20.1517 37.5829 21.3396 37.5663 22.3964 37.7029C22.8245 37.7583 23.255 37.8326 23.6855 37.7992C24.116 37.7658 24.5569 37.6092 24.8293 37.2808C25.0588 37.4268 24.9739 37.7645 24.9271 38.0286C24.881 38.2893 24.919 38.5947 25.1336 38.7552C25.3482 38.9157 25.7485 38.7834 25.7306 38.5195C25.5376 39.0791 25.9636 39.6977 26.5123 39.9418C26.6945 40.0211 26.8868 40.0756 27.084 40.1037C27.4148 40.1503 27.717 40.3134 27.934 40.5625C28.1511 40.8116 28.2681 41.1297 28.2633 41.4572L28.2631 41.4632C28.2688 41.536 28.2521 41.6087 28.2152 41.6721C28.1694 41.7226 28.111 41.7606 28.0458 41.7824C27.4921 42.0308 27.0395 42.4541 26.7606 42.9847C26.6129 43.2677 26.5016 43.5955 26.2293 43.7681C25.8945 43.9801 25.4564 43.8745 25.059 43.9046C24.73 43.9353 24.4178 44.0615 24.1624 44.2671C23.907 44.4727 23.72 44.7483 23.6253 45.0586C23.5329 45.3822 23.5452 45.7347 23.3387 46.0223C23.2948 46.0873 23.2374 46.1424 23.1701 46.1839C23.1029 46.2255 23.0274 46.2525 22.9487 46.2633C22.6396 46.2962 22.4974 46.0244 22.2756 45.8841C21.7542 45.5544 21.4217 45.9897 21.257 46.4002C21.0761 46.8512 20.9498 47.0451 20.3496 47.15Z" fill="black"/>
<path d="M20.3496 47.0802C19.949 47.1502 19.4825 47.0177 19.2872 46.6678C19.21 46.4941 19.1553 46.3116 19.1243 46.1246C18.9173 45.3287 18.2403 44.7343 17.9069 43.9808C17.3453 42.7114 17.8384 41.2551 18.3327 39.9591C18.5756 39.3223 18.8366 38.6589 19.355 38.2072C20.1517 37.513 21.3396 37.4965 22.3964 37.6331C22.8245 37.6885 23.255 37.7628 23.6855 37.7294C24.116 37.696 24.5569 37.5394 24.8293 37.211C25.0588 37.357 24.9739 37.6946 24.9271 37.9588C24.881 38.2195 24.919 38.5249 25.1336 38.6854C25.3482 38.8458 25.7485 38.7136 25.7306 38.4496C25.5376 39.0092 25.9636 39.6278 26.5123 39.872C26.6945 39.9513 26.8868 40.0058 27.084 40.0339C27.4148 40.0805 27.717 40.2435 27.934 40.4927C28.1511 40.7418 28.2681 41.0598 28.2633 41.3874L28.2631 41.3934C28.2688 41.4661 28.2521 41.5389 28.2152 41.6022C28.1694 41.6527 28.111 41.6908 28.0458 41.7126C27.4921 41.9609 27.0395 42.3843 26.7606 42.9148C26.6129 43.1978 26.5016 43.5257 26.2293 43.6982C25.8945 43.9103 25.4564 43.8047 25.059 43.8348C24.73 43.8655 24.4178 43.9917 24.1624 44.1973C23.907 44.4029 23.72 44.6784 23.6253 44.9888C23.5329 45.3124 23.5452 45.6649 23.3387 45.9525C23.2948 46.0175 23.2374 46.0726 23.1701 46.1141C23.1029 46.1557 23.0274 46.1827 22.9487 46.1935C22.6396 46.2263 22.4974 45.9545 22.2756 45.8143C21.7542 45.4846 21.4217 45.9199 21.257 46.3304C21.0761 46.7814 20.9498 46.9752 20.3496 47.0802Z" fill="#572142"/>
<g opacity="0.05">
<path opacity="0.05" d="M31.6869 48.6942C35.535 51.5912 37.4975 56.2613 37.7706 56.9464C38.3019 57.0317 38.6593 57.1018 38.6593 57.1018C38.6593 57.1018 36.7028 51.8962 32.5422 48.7641C31.4412 47.9243 30.1237 47.401 28.7369 47.2525C28.5427 47.233 28.3605 47.223 28.1861 47.2205C29.4621 47.411 30.6673 47.9183 31.6869 48.6942Z" fill="black"/>
<path opacity="0.05" d="M19.8776 48.6827C20.2432 50.055 21.2664 51.2553 22.1095 52.4079L23.192 53.8878L23.4155 53.0938L22.9649 52.4778C22.1217 51.3251 21.0986 50.1249 20.7329 48.7526C20.6381 48.3965 20.6723 48.4731 20.4478 48.4731C20.2459 48.4915 20.0471 48.5353 19.8566 48.6033C19.8629 48.6273 19.8697 48.653 19.8776 48.6827Z" fill="black"/>
<path opacity="0.05" d="M32.8629 56.6685C33.0944 57.0097 33.2422 57.2415 33.2422 57.2415C33.1179 56.6928 34.1331 56.5964 35.3172 56.6619C34.3882 56.5652 33.4237 56.5236 32.8629 56.6685Z" fill="black"/>
<path opacity="0.05" d="M30.0935 54.1829C29.7566 53.8722 29.4723 53.722 29.3219 53.8878C28.7517 54.5166 30.5337 62.8309 30.5337 62.8309L19.6503 63.6115L19.6994 63.7392L31.389 62.9008C31.389 62.9008 29.8376 55.6616 30.0935 54.1829Z" fill="black"/>
</g>
<path d="M19.2924 70.8161C18.6103 71.3694 16.6737 72.6955 14.2823 72.1932C11.8988 71.6922 13.8981 70.5722 14.8119 70.1356C14.8603 70.1126 14.9027 70.0791 14.9361 70.0378C14.9695 69.9964 14.9929 69.9483 15.0046 69.8968C15.0163 69.8454 15.016 69.792 15.0038 69.7407C14.9915 69.6893 14.9676 69.6414 14.9338 69.6004C14.4097 68.973 13.8078 68.4123 13.1418 67.9312C12.5609 67.512 11.8617 66.7575 11.253 66.033V66.0323C10.9329 65.6529 10.6393 65.2826 10.3998 64.9717C10.3548 64.9132 10.3296 64.8425 10.3276 64.7693C10.3257 64.6961 10.3472 64.6241 10.3891 64.5635C10.431 64.5029 10.4911 64.4567 10.5612 64.4312C10.6312 64.4058 10.7076 64.4025 10.7797 64.4218L15.4527 65.6655C15.5259 65.6849 15.5908 65.7268 15.638 65.7849L17.174 67.6665L19.3444 70.3256C19.4033 70.3976 19.4308 70.4895 19.4211 70.5813C19.4113 70.6731 19.3651 70.7574 19.2924 70.8161Z" fill="#EF91A3"/>
<path opacity="0.1" d="M17.174 67.6664C13.2744 64.8787 11.8025 65.3769 11.253 66.0322C10.9329 65.6529 10.6393 65.2826 10.3998 64.9717C10.3548 64.9132 10.3296 64.8425 10.3276 64.7693C10.3257 64.6961 10.3472 64.6241 10.3891 64.5635C10.431 64.5029 10.4911 64.4567 10.5612 64.4312C10.6312 64.4058 10.7076 64.4025 10.7797 64.4218L15.4527 65.6654C15.5259 65.6849 15.5908 65.7268 15.638 65.7849L17.174 67.6664Z" fill="black"/>
<path d="M13.9259 59.058C13.9259 59.058 7.65346 57.0319 8.65135 61.2938C9.64924 65.5557 10.9322 66.6037 10.9322 66.6037C10.9322 66.6037 11.2886 63.2501 17.3472 67.6517L15.2089 64.2981L17.7036 61.2239L13.9259 59.058Z" fill="#5D526E"/>
<path opacity="0.1" d="M12.4291 55.2154C12.4291 55.2154 11.8589 58.1498 13.9259 61.713C15.5645 64.5377 13.6198 65.8257 12.7432 66.2383C12.6283 66.2924 12.4991 66.3103 12.3734 66.2896C12.2477 66.269 12.1316 66.2107 12.041 66.1228C11.4635 65.5628 10.3564 64.1426 11.0035 61.9226L11.4312 60.8048L9.07902 59.1279C9.07902 59.1279 8.44265 56.8143 8.7252 56.2943C9.00775 55.7743 11.2886 54.377 11.2886 54.377L12.4291 55.2154Z" fill="black"/>
<path d="M12.4291 55.0757C12.4291 55.0757 11.8589 58.0101 13.9259 61.5733C15.5645 64.398 13.6198 65.686 12.7432 66.0986C12.6283 66.1527 12.4991 66.1706 12.3734 66.1499C12.2477 66.1293 12.1316 66.071 12.041 65.9831C11.4635 65.4231 10.3564 64.0029 11.0035 61.7829L11.4312 60.6651L9.07902 58.9882C9.07902 58.9882 8.44265 56.6746 8.7252 56.1546C9.00775 55.6346 11.2886 54.2372 11.2886 54.2372L12.4291 55.0757Z" fill="#EF91A3"/>
<path d="M17.6324 49.4862C17.6324 49.4862 12.5004 52.3508 10.362 54.2372C8.2237 56.1236 8.65137 56.7524 8.65137 56.7524C8.65137 56.7524 10.7184 52.9796 12.5004 56.2634C12.5004 56.2634 17.4898 52.7001 18.8441 54.2372C20.1984 55.7743 17.6324 49.4862 17.6324 49.4862Z" fill="#DFECFB"/>
<path d="M15.7078 65.9749L19.9845 65.1365L19.4855 67.3023L16.3863 66.9861L15.7078 65.9749Z" fill="#5D526E"/>
<path d="M23.1208 56.7524L22.9782 58.2895L17.8462 57.4511L16.2781 56.4729L13.9259 55.6345C14.2034 54.8852 14.2468 54.0718 14.0507 53.2982C13.9618 52.9645 13.8237 52.6453 13.6408 52.3507C12.6429 50.7438 17.8462 51.4425 17.8462 51.4425C17.7898 51.8047 17.7636 52.1709 17.7678 52.5373C17.7785 53.7048 18.1157 55.3502 19.9846 55.0756L21.5527 55.9839L23.1208 56.7524Z" fill="#FFC1CD"/>
<path d="M18.0601 54.5865C18.0601 54.5865 20.6973 53.4686 21.9803 55.7742C23.2633 58.0799 23.8336 57.9401 23.8336 57.9401L21.2676 56.3332L18.0601 54.5865Z" fill="#FFC1CD"/>
<path d="M20.2696 66.2544C20.2696 66.2544 18.2739 67.8614 19.4143 69.8876C20.5548 71.9137 27.6825 71.5644 27.6825 71.5644C27.6825 71.5644 23.1579 69.8979 24.2798 64.3033C24.2798 64.3033 21.0537 65.2064 20.2696 66.2544Z" fill="#5F5470"/>
<path d="M29.7496 68.6299L29.0368 71.2848L31.5316 70.7958C31.5316 70.7958 30.4624 68.56 30.6049 67.9312C30.7475 67.3024 29.7496 68.6299 29.7496 68.6299Z" fill="#5F5470"/>
<path d="M31.7454 65.416C31.7454 65.416 38.2317 66.0448 40.0136 67.023L41.3679 67.4422C41.3679 67.4422 41.8669 67.3024 42.936 68.2107L48.4957 69.4683L52.7724 70.3067C52.7724 70.3067 56.6927 71.0054 56.9778 70.8657C57.2629 70.7259 59.1874 71.9137 57.3342 72.4726C55.4809 73.0316 51.6319 72.1932 51.6319 72.1932C51.6319 72.1932 48.7808 71.8438 48.1393 72.0534C47.4978 72.263 43.1499 71.6342 43.1499 71.6342L38.8732 71.9137C38.8732 71.9137 38.1604 70.8657 36.3072 71.215C34.9847 71.4643 32.6822 71.0732 31.4718 70.8287C31.2375 70.7815 31.0228 70.667 30.8552 70.4997C30.6876 70.3325 30.5746 70.12 30.5307 69.8895L30.106 67.6518L31.7454 65.416Z" fill="#FFC1CD"/>
<path opacity="0.05" d="M31.7454 65.416C31.7454 65.416 38.2317 66.0448 40.0136 67.023L41.3679 67.4422C41.3679 67.4422 41.8669 67.3024 42.936 68.2107L48.4957 69.4683L52.7724 70.3067C52.7724 70.3067 56.6927 71.0054 56.9778 70.8657C57.2629 70.7259 59.1874 71.9137 57.3342 72.4726C55.4809 73.0316 51.6319 72.1932 51.6319 72.1932C51.6319 72.1932 48.7808 71.8438 48.1393 72.0534C47.4978 72.263 43.1499 71.6342 43.1499 71.6342L38.8732 71.9137C38.8732 71.9137 38.1604 70.8657 36.3072 71.215C34.9847 71.4643 32.6822 71.0732 31.4718 70.8287C31.2375 70.7815 31.0228 70.667 30.8552 70.4997C30.6876 70.3325 30.5746 70.12 30.5307 69.8895L30.106 67.6518L31.7454 65.416Z" fill="black"/>
<path opacity="0.1" d="M17.7678 52.5373C17.2644 52.9618 16.6594 53.2543 16.0093 53.3873C15.3592 53.5204 14.6854 53.4897 14.0507 53.2982C13.9618 52.9645 13.8237 52.6453 13.6408 52.3507C12.6429 50.7438 17.8462 51.4425 17.8462 51.4425C17.7898 51.8047 17.7636 52.1709 17.7678 52.5373Z" fill="black"/>
<path d="M15.2089 53.3289C17.374 53.3289 19.1292 51.6085 19.1292 49.4862C19.1292 47.3639 17.374 45.6435 15.2089 45.6435C13.0438 45.6435 11.2886 47.3639 11.2886 49.4862C11.2886 51.6085 13.0438 53.3289 15.2089 53.3289Z" fill="#FFC1CD"/>
<path opacity="0.1" d="M13.5695 55.1455C13.5695 55.1455 16.5632 56.7524 16.7057 57.8005C16.8483 58.8485 16.2781 60.1061 16.2781 60.1061C16.2781 60.1061 17.6324 68.071 19.343 68.6299L23.9048 64.2981L27.7538 62.6213C27.7538 62.6213 25.4729 62.4816 25.2591 60.3855C25.0453 58.2895 25.5442 57.5909 22.9782 56.6127C20.4122 55.6346 19.0223 54.4818 19.0223 54.4818L18.3597 54.6456L21.7665 56.4031C21.7665 56.4031 23.691 57.521 18.7015 56.6826L13.9972 55.0058L13.5695 55.1455Z" fill="black"/>
<path d="M13.4983 55.0058C13.4983 55.0058 16.4919 56.6128 16.6345 57.6608C16.777 58.7088 16.2068 59.9664 16.2068 59.9664C16.2068 59.9664 17.5611 67.9313 19.2718 68.4903L23.8336 64.1585L27.6826 62.4817C27.6826 62.4817 25.4017 62.3419 25.1878 60.2459C24.974 58.1499 25.4729 57.4512 22.9069 56.4731C20.3409 55.4949 18.951 54.3421 18.951 54.3421L18.2884 54.506L21.6952 56.2635C21.6952 56.2635 23.6197 57.3813 18.6303 56.5429L13.9259 54.8661L13.4983 55.0058Z" fill="#FF808C"/>
<path opacity="0.1" d="M14.5674 55.5648C14.5674 55.5648 11.645 54.5168 12.3578 57.8704C13.0706 61.224 16.777 67.023 16.777 67.023L25.4729 64.0886C25.4729 64.0886 28.1815 62.0624 27.4687 61.8528C26.7559 61.6432 22.9782 62.9707 22.9782 62.9707L17.8462 63.7393L16.6345 60.3856C16.6345 60.3856 17.7749 59.6171 17.4185 58.6389C17.415 58.6292 17.4114 58.6194 17.4077 58.6095C16.9236 57.3075 15.9476 56.2375 14.6816 55.6207L14.5674 55.5648Z" fill="black"/>
<path d="M14.4249 55.4249C14.4249 55.4249 11.5025 54.3769 12.2153 57.7306C12.9281 61.0842 16.6345 66.8832 16.6345 66.8832L25.3304 63.9488C25.3304 63.9488 28.039 61.9226 27.3262 61.713C26.6134 61.5034 22.8357 62.8309 22.8357 62.8309L17.7037 63.5994L16.4919 60.2458C16.4919 60.2458 17.6324 59.4772 17.276 58.4991C17.2724 58.4893 17.2688 58.4795 17.2652 58.4697C16.7811 57.1676 15.8051 56.0977 14.539 55.4809L14.4249 55.4249Z" fill="#FFC1CD"/>
<path opacity="0.1" d="M14.6973 43.9754C14.3588 43.8802 14.0059 43.844 13.6546 43.8684C13.3239 43.9159 13.0034 44.0162 12.7057 44.1653C12.2266 44.3845 11.7679 44.6443 11.3349 44.9417C11.0437 45.1417 10.7583 45.3618 10.4223 45.476C9.91844 45.6472 9.33544 45.5676 8.87115 45.8248C8.22048 46.1853 8.07506 47.0496 8.17114 47.7762C8.26722 48.5027 8.53014 49.2267 8.41324 49.9503C8.23831 51.0332 7.28023 51.8024 6.40001 52.4789C6.12283 52.6919 5.82532 52.9421 5.78277 53.2848C5.75616 53.4991 5.83641 53.7104 5.90345 53.9161C6.27475 55.0427 6.25541 56.258 5.84846 57.3727C5.43269 58.4867 4.61333 59.4118 3.5465 59.9718C3.1419 60.1789 2.65099 60.3905 2.55623 60.8282C2.43592 61.3838 3.04635 61.8142 3.5899 62.0112C4.03333 62.1718 4.49183 62.2892 4.95875 62.3617C5.36941 62.4254 5.80846 62.4502 6.18322 62.2737C6.61931 62.0683 6.8853 61.6326 7.11577 61.2156C8.01309 59.5921 9.11466 58.7962 9.69524 57.0397C9.82046 56.6608 10.0202 56.2102 10.4245 56.1718C10.6775 56.1479 10.9061 56.3042 11.1211 56.437C12.1583 57.0775 13.2478 56.3597 14.2133 55.6192C14.4367 55.4478 14.6278 55.2328 14.8765 55.0991C15.4048 54.815 16.1742 54.8962 16.4909 54.3937C16.5645 54.2612 16.6157 54.1179 16.6426 53.9693C16.7724 53.423 16.902 52.8495 16.752 52.3082C16.6132 51.8073 16.2513 51.3967 16.0381 50.9216C15.8248 50.4465 15.8126 49.7973 16.2483 49.5023C16.3789 49.4138 16.5361 49.3681 16.6646 49.2767C17.039 49.0105 17.0474 48.4788 17.0454 48.0254C17.0359 47.9133 17.0555 47.8006 17.1023 47.6979C17.1708 47.6004 17.261 47.5193 17.366 47.4607C17.7818 47.1813 18.1057 46.7893 18.2979 46.3325C18.4867 45.8331 18.0031 45.6072 17.6167 45.3265C16.7438 44.6922 15.7517 44.2331 14.6973 43.9754Z" fill="black"/>
<path d="M14.626 43.9056C14.2876 43.8104 13.9346 43.7742 13.5833 43.7986C13.2526 43.8461 12.9321 43.9464 12.6345 44.0955C12.1553 44.3147 11.6966 44.5744 11.2636 44.8719C10.9724 45.0719 10.687 45.292 10.3511 45.4061C9.84715 45.5773 9.26415 45.4978 8.79987 45.755C8.14919 46.1155 8.00377 46.9798 8.09985 47.7063C8.19593 48.4329 8.45885 49.1569 8.34196 49.8805C8.16702 50.9634 7.20894 51.7326 6.32872 52.4091C6.05154 52.6221 5.75403 52.8722 5.71148 53.215C5.68487 53.4293 5.76512 53.6406 5.83216 53.8463C6.20346 54.9729 6.18412 56.1882 5.77717 57.3029C5.3614 58.4169 4.54204 59.342 3.47522 59.902C3.07061 60.1091 2.5797 60.3207 2.48494 60.7584C2.36463 61.314 2.97507 61.7444 3.51861 61.9414C3.96204 62.102 4.42054 62.2194 4.88746 62.2918C5.29812 62.3555 5.73717 62.3804 6.11193 62.2039C6.54802 61.9985 6.81401 61.5627 7.04449 61.1458C7.94181 59.5223 9.04337 58.7264 9.62395 56.9699C9.74917 56.591 9.94886 56.1403 10.3533 56.102C10.6062 56.0781 10.8348 56.2344 11.0498 56.3671C12.0871 57.0077 13.1765 56.2899 14.142 55.5494C14.3654 55.378 14.5565 55.163 14.8052 55.0293C15.3335 54.7451 16.1029 54.8264 16.4196 54.3239C16.4933 54.1914 16.5445 54.0481 16.5713 53.8995C16.7011 53.3532 16.8307 52.7797 16.6807 52.2383C16.542 51.7374 16.18 51.3269 15.9668 50.8517C15.7535 50.3766 15.7413 49.7274 16.177 49.4325C16.3076 49.344 16.4648 49.2983 16.5933 49.2069C16.9677 48.9407 16.9762 48.4089 16.9741 47.9555C16.9646 47.8434 16.9842 47.7308 17.031 47.6281C17.0996 47.5306 17.1897 47.4494 17.2947 47.3908C17.7106 47.1115 18.0344 46.7195 18.2266 46.2627C18.4154 45.7633 17.9318 45.5373 17.5454 45.2567C16.6725 44.6224 15.6804 44.1632 14.626 43.9056Z" fill="#B46D86"/>
<path d="M47.8186 74.5337C45.8834 74.9341 40.2367 74.7643 39.4078 74.1145C38.139 73.1196 38.4512 72.2358 38.5353 72.0534H38.5168C38.5168 72.0534 39.2296 70.3766 38.5168 69.119C38.5168 69.119 38.4455 67.5819 36.9487 66.3942C35.4518 65.2064 33.8125 61.8528 33.8125 61.8528L32.9571 63.5995C32.9571 63.5995 31.6713 67.4345 30.3377 69.1372C30.0709 69.475 29.8892 69.8697 29.8074 70.2893C29.719 70.7511 29.4139 71.3331 28.4666 71.4945L28.4174 71.5029C27.7542 71.6116 27.073 71.5325 26.454 71.275C25.8349 71.0175 25.3037 70.5921 24.9227 70.0489C24.2847 69.1486 23.5621 67.8989 23.3987 66.6817C23.3454 66.2722 23.3801 65.8563 23.5006 65.4607C23.621 65.0652 23.8245 64.6987 24.098 64.3848L24.1058 64.3757C25.6412 62.5976 30.9642 56.4814 31.8167 56.1237C31.8167 56.1237 35.6657 52.4906 37.1625 57.3813C38.6594 62.272 39.1583 63.7392 39.1583 63.7392C39.1583 63.7392 40.9481 66.8728 41.4392 67.9313C41.9467 69.0254 44.0579 71.7544 44.2725 72.0304C44.4685 72.1617 46.3552 73.4159 46.9632 73.4159C47.2319 73.4159 49.2127 74.2452 47.8186 74.5337Z" fill="#FFC1CD"/>
<g opacity="0.05">
<path opacity="0.05" d="M38.8085 70.1035C38.869 69.5605 38.836 68.9136 38.5168 68.3505C38.5168 68.3505 38.4455 66.8134 36.9487 65.6257C35.4519 64.4379 33.8125 61.0843 33.8125 61.0843L32.9571 62.831C32.9571 62.831 31.6713 66.666 30.3377 68.3687C30.0709 68.7064 29.8892 69.1012 29.8074 69.5208C29.719 69.9826 29.4139 70.5646 28.4666 70.726L28.4174 70.7344C27.7542 70.8431 27.073 70.764 26.454 70.5065C25.8349 70.2489 25.3037 69.8236 24.9227 69.2804C24.2918 68.3901 23.5791 67.1581 23.4053 65.9537C23.3656 66.2181 23.3634 66.4866 23.3987 66.7516C23.5621 67.9688 24.2847 69.2185 24.9227 70.1188C25.3037 70.662 25.8349 71.0873 26.454 71.3449C27.073 71.6024 27.7542 71.6815 28.4174 71.5728L28.4666 71.5644C29.4139 71.403 29.719 70.821 29.8074 70.3592C29.8892 69.9396 30.0709 69.5449 30.3377 69.2071C31.6713 67.5044 32.9571 63.6694 32.9571 63.6694L33.8125 61.9227C33.8125 61.9227 35.4519 65.2763 36.9487 66.4641C38.4455 67.6518 38.5168 69.1889 38.5168 69.1889C38.6734 69.4725 38.7724 69.7831 38.8085 70.1035Z" fill="black"/>
</g>
<path opacity="0.05" d="M20.234 61.0492C20.234 61.0492 23.299 60.9794 23.0851 60.0012L20.234 61.0492Z" fill="black"/>
<path d="M70.5005 64.5396C70.5005 64.5396 75.2593 61.3261 79.9125 62.4664C84.5656 63.6067 81.0757 67.5457 81.0757 67.5457L70.5005 64.5396Z" fill="#EED1D7"/>
<path d="M68.5969 62.4664C68.5969 62.4664 73.25 60.4969 76.4226 62.5701C79.5952 64.6433 85.9403 65.6799 85.9403 65.6799" fill="#CCB2BB"/>
</g>
<defs>
<linearGradient id="paint0_linear" x1="25.6161" y1="38.29" x2="25.6161" y2="38.147" gradientUnits="userSpaceOnUse">
<stop stop-color="#808080" stop-opacity="0.25"/>
<stop offset="0.53514" stop-color="#808080" stop-opacity="0.12"/>
<stop offset="1" stop-color="#808080" stop-opacity="0.1"/>
</linearGradient>
<linearGradient id="paint1_linear" x1="36.2579" y1="92.3814" x2="36.2579" y2="92.1854" gradientUnits="userSpaceOnUse">
<stop stop-color="#808080" stop-opacity="0.25"/>
<stop offset="0.53514" stop-color="#808080" stop-opacity="0.12"/>
<stop offset="1" stop-color="#808080" stop-opacity="0.1"/>
</linearGradient>
<linearGradient id="paint2_linear" x1="772.606" y1="2051.47" x2="772.606" y2="1931.01" gradientUnits="userSpaceOnUse">
<stop stop-color="#808080" stop-opacity="0.25"/>
<stop offset="0.53514" stop-color="#808080" stop-opacity="0.12"/>
<stop offset="1" stop-color="#808080" stop-opacity="0.1"/>
</linearGradient>
<clipPath id="clip0">
<rect width="114" height="89" fill="white"/>
</clipPath>
</defs>
</svg>
