<svg width="117" height="81" viewBox="0 0 117 81" fill="none" xmlns="http://www.w3.org/2000/svg">
<g clip-path="url(#clip0)">
<path d="M116.603 46.0499C116.489 52.5023 114.638 58.794 111.258 64.2186C107.878 69.6433 103.103 73.9861 97.4696 76.7595C93.0403 78.9314 88.1987 80.0548 83.2969 80.048C82.592 80.048 81.8923 80.0254 81.1976 79.9803C66.0528 78.9986 50.8635 78.9986 35.7188 79.9803C35.0244 80.025 34.3247 80.0476 33.6195 80.048C27.9308 80.0566 22.3369 78.5426 17.3814 75.6533C12.2911 72.6825 8.03894 68.3887 5.04541 63.1966C2.05189 58.0045 0.420754 52.0941 0.313369 46.0499C-0.055997 26.6238 14.811 10.7412 33.464 10.6517C43.3983 10.6046 52.3262 15.0875 58.4582 22.2303C64.5901 15.0875 73.518 10.6046 83.4523 10.6517C102.105 10.7412 116.972 26.6238 116.603 46.0499Z" fill="#F2F2F2"/>
<path d="M97.4696 76.7596C93.0403 78.9315 88.1987 80.0549 83.2969 80.048C82.5921 80.048 81.8923 80.0255 81.1976 79.9803C66.0528 78.9986 50.8635 78.9986 35.7188 79.9803C35.0245 80.0251 34.3247 80.0476 33.6195 80.048C27.9308 80.0566 22.3369 78.5427 17.3814 75.6533C24.8774 72.2947 39.5188 70.0134 56.3542 70.0134C74.9791 70.0134 90.9192 72.8049 97.4696 76.7596Z" fill="#2F2E41"/>
<path d="M74.3991 28.6751C74.0209 28.3383 73.5595 28.1171 73.0666 28.0364C72.5737 27.9556 72.0688 28.0184 71.6085 28.2179C70.2201 28.8441 69.6155 30.6034 69.7126 32.1668C69.8097 33.7302 70.4395 35.1967 70.8474 36.7055C71.3953 38.7319 71.5375 40.9283 70.8954 42.9249C70.2533 44.9216 68.7423 46.6812 66.7825 47.2456C64.9634 47.7695 63.0338 47.2442 61.2147 46.7204" stroke="#3F3D56" stroke-miterlimit="10"/>
<path d="M77.6925 25.5513C77.7046 25.3361 77.6756 25.1206 77.6072 24.9171C77.5388 24.7135 77.4322 24.5259 77.2937 24.3649C77.1551 24.204 76.9873 24.0728 76.7997 23.979C76.6121 23.8852 76.4085 23.8305 76.2005 23.8181C75.9925 23.8057 75.7841 23.8358 75.5874 23.9067C75.3906 23.9776 75.2093 24.0879 75.0538 24.2313C74.8982 24.3747 74.7715 24.5484 74.6809 24.7425C74.5903 24.9365 74.5376 25.1472 74.5257 25.3623L74.3431 28.6378L77.5099 28.8267C77.7178 28.8391 77.9261 28.8091 78.1227 28.7382C78.3194 28.6674 78.5007 28.5571 78.6562 28.4138C78.8117 28.2705 78.9384 28.0969 79.0291 27.903C79.1198 27.709 79.1726 27.4985 79.1846 27.2834C79.1966 27.0684 79.1675 26.853 79.099 26.6495C79.0305 26.4461 78.9239 26.2586 78.7854 26.0977C78.6468 25.9369 78.479 25.8058 78.2915 25.7121C78.104 25.6183 77.9004 25.5637 77.6925 25.5513Z" fill="#FF8D8D"/>
<path d="M74.2872 34.0798C74.3115 33.6455 74.1679 33.219 73.888 32.8941C73.6082 32.5693 73.2151 32.3727 72.7952 32.3476C72.3752 32.3226 71.9629 32.4711 71.6488 32.7605C71.3347 33.0499 71.1447 33.4566 71.1204 33.8909L70.9378 37.1664L74.1046 37.3553C74.5244 37.3801 74.9365 37.2314 75.2504 36.942C75.5642 36.6526 75.7541 36.2461 75.7783 35.812C75.8025 35.3778 75.6591 34.9514 75.3795 34.6266C75.0999 34.3018 74.707 34.1051 74.2872 34.0798Z" fill="#FF8D8D"/>
<path d="M69.7243 24.9437C69.5646 24.8052 69.3802 24.7005 69.1814 24.6357C68.9827 24.571 68.7735 24.5473 68.566 24.5662C68.3584 24.5851 68.1564 24.6461 67.9717 24.7457C67.7869 24.8453 67.6229 24.9816 67.4891 25.1468C67.3552 25.3121 67.2542 25.5029 67.1917 25.7085C67.1293 25.9142 67.1066 26.1305 67.1249 26.3452C67.1433 26.5599 67.2025 26.7687 67.2989 26.9597C67.3954 27.1508 67.5273 27.3203 67.6871 27.4586L70.1186 29.5656L72.1557 27.0507C72.2897 26.8856 72.3908 26.6948 72.4535 26.4893C72.5161 26.2837 72.5389 26.0674 72.5207 25.8527C72.5024 25.638 72.4435 25.4291 72.3472 25.238C72.2508 25.0469 72.119 24.8773 71.9593 24.7388C71.7996 24.6004 71.6151 24.4959 71.4163 24.4313C71.2175 24.3667 71.0083 24.3432 70.8007 24.3622C70.5932 24.3813 70.3913 24.4424 70.2066 24.5422C70.0219 24.6419 69.858 24.7784 69.7243 24.9437H69.7243Z" fill="#FF8D8D"/>
<path d="M88.6649 27.1818C88.3871 26.753 87.9993 26.4126 87.545 26.199C87.0907 25.9854 86.5879 25.9068 86.0928 25.9722C84.5934 26.1933 83.5575 27.7225 83.2484 29.2561C82.9394 30.7898 83.1688 32.3768 83.1734 33.9434C83.1795 36.0477 82.751 38.2039 81.6179 39.9514C80.4847 41.699 78.5752 42.9787 76.5408 42.9828C74.6526 42.9866 72.9279 41.9487 71.3095 40.9426" stroke="#3F3D56" stroke-miterlimit="10"/>
<path d="M92.6438 25.0782C92.7108 24.8742 92.7382 24.6586 92.7246 24.4436C92.711 24.2287 92.6565 24.0186 92.5644 23.8254C92.4723 23.6321 92.3443 23.4596 92.1877 23.3175C92.0311 23.1755 91.849 23.0668 91.6518 22.9975C91.4545 22.9283 91.2461 22.8999 91.0382 22.914C90.8304 22.9281 90.6273 22.9844 90.4405 23.0796C90.2537 23.1749 90.0868 23.3073 89.9495 23.4693C89.8122 23.6313 89.7071 23.8196 89.6401 24.0236L88.6205 27.1304L91.6242 28.185C91.8214 28.2543 92.0299 28.2827 92.2378 28.2686C92.4456 28.2545 92.6487 28.1982 92.8355 28.1029C93.0223 28.0076 93.1891 27.8752 93.3265 27.7132C93.4638 27.5513 93.5689 27.3629 93.6359 27.1589C93.7028 26.9549 93.7303 26.7393 93.7167 26.5243C93.703 26.3094 93.6486 26.0993 93.5565 25.9061C93.4644 25.7128 93.3364 25.5403 93.1798 25.3983C93.0232 25.2562 92.8411 25.1475 92.6438 25.0782Z" fill="#FF8D8D"/>
<path d="M87.1652 32.3604C87.3004 31.9485 87.2718 31.4978 87.0858 31.1076C86.8997 30.7174 86.5714 30.4196 86.1731 30.2797C85.7748 30.1399 85.3391 30.1694 84.9618 30.3619C84.5846 30.5543 84.2966 30.8939 84.1614 31.3058L83.1418 34.4126L86.1456 35.4672C86.5439 35.6071 86.9796 35.5776 87.3568 35.3851C87.7341 35.1927 88.022 34.8531 88.1572 34.4411C88.2924 34.0292 88.2639 33.5785 88.0778 33.1883C87.8918 32.7981 87.5635 32.5003 87.1652 32.3604Z" fill="#FF8D8D"/>
<path d="M85.1199 22.2972C85.0017 22.1197 84.8509 21.968 84.676 21.8509C84.5011 21.7337 84.3056 21.6533 84.1007 21.6143C83.8958 21.5753 83.6854 21.5785 83.4817 21.6236C83.2779 21.6687 83.0847 21.7549 82.9132 21.8773C82.7417 21.9996 82.5951 22.1558 82.482 22.3367C82.3688 22.5177 82.2912 22.7199 82.2537 22.9319C82.2161 23.1439 82.2193 23.3615 82.263 23.5722C82.3068 23.7829 82.3903 23.9827 82.5087 24.16L84.3097 26.8608L86.9209 24.9981C87.2671 24.751 87.5044 24.3719 87.5803 23.9439C87.6563 23.516 87.5648 23.0744 87.326 22.7163C87.0872 22.3581 86.7206 22.1127 86.3069 22.0342C85.8931 21.9556 85.4662 22.0502 85.1199 22.2972Z" fill="#FF8D8D"/>
<path d="M81.8295 5.31103C82.3225 5.23068 82.8273 5.29396 83.2875 5.49376C83.7476 5.69356 84.1449 6.022 84.4347 6.44223C85.2961 7.73079 84.9145 9.55571 84.036 10.8319C83.1576 12.1081 81.8755 13.0118 80.7606 14.0723C79.2632 15.4967 78.0241 17.2864 77.5535 19.3335C77.0829 21.3807 77.4716 23.6994 78.8503 25.2467C80.13 26.6828 82.0379 27.2872 83.851 27.8327" stroke="#3F3D56" stroke-miterlimit="10"/>
<path d="M80.62 0.861545C80.7193 0.672176 80.8537 0.50489 81.0155 0.369239C81.1773 0.233587 81.3634 0.132228 81.563 0.0709465C81.7627 0.00966529 81.9721 -0.0103378 82.1793 0.0120806C82.3864 0.034499 82.5873 0.0988998 82.7704 0.201605C82.9534 0.30431 83.1152 0.443307 83.2463 0.610663C83.3775 0.778019 83.4755 0.970454 83.5347 1.17698C83.594 1.38351 83.6133 1.60009 83.5916 1.81435C83.57 2.0286 83.5077 2.23635 83.4084 2.42572L81.8961 5.30977L79.1077 3.7456C78.9247 3.64289 78.7629 3.5039 78.6318 3.33654C78.5006 3.16918 78.4026 2.97675 78.3434 2.77022C78.2841 2.56369 78.2648 2.34712 78.2865 2.13286C78.3081 1.9186 78.3704 1.71085 78.4697 1.52149C78.569 1.33212 78.7034 1.16483 78.8652 1.02918C79.027 0.893527 79.213 0.792167 79.4127 0.730886C79.6124 0.669605 79.8218 0.649603 80.0289 0.672021C80.2361 0.69444 80.4369 0.75884 80.62 0.861545V0.861545Z" fill="#FF8D8D"/>
<path d="M79.173 9.96665C79.2723 9.77728 79.4067 9.60999 79.5685 9.47434C79.7303 9.33869 79.9164 9.23733 80.116 9.17605C80.3157 9.11477 80.5251 9.09476 80.7322 9.11718C80.9394 9.1396 81.1402 9.204 81.3233 9.30671C81.5064 9.40941 81.6682 9.54841 81.7993 9.71577C81.9305 9.88312 82.0285 10.0756 82.0877 10.2821C82.1469 10.4886 82.1663 10.7052 82.1446 10.9194C82.1229 11.1337 82.0607 11.3414 81.9614 11.5308L80.4491 14.4149L77.6607 12.8507C77.4777 12.748 77.3159 12.609 77.1848 12.4416C77.0536 12.2743 76.9556 12.0818 76.8964 11.8753C76.8371 11.6688 76.8178 11.4522 76.8395 11.238C76.8611 11.0237 76.9234 10.816 77.0227 10.6266C77.122 10.4372 77.2564 10.2699 77.4182 10.1343C77.58 9.99863 77.766 9.89727 77.9657 9.83599C78.1654 9.77471 78.3748 9.7547 78.5819 9.77712C78.7891 9.79954 78.9899 9.86394 79.173 9.96665L79.173 9.96665Z" fill="#FF8D8D"/>
<path d="M87.7034 4.68498C87.9096 4.65414 88.1197 4.66564 88.3217 4.71882C88.5236 4.772 88.7134 4.86582 88.8803 4.99492C89.0472 5.12401 89.1878 5.28585 89.2942 5.47119C89.4005 5.65653 89.4705 5.86173 89.5002 6.07507C89.5299 6.28841 89.5186 6.5057 89.467 6.71453C89.4155 6.92336 89.3246 7.11963 89.1997 7.29213C89.0747 7.46462 88.9181 7.60996 88.7389 7.71984C88.5596 7.82972 88.3612 7.90198 88.1549 7.93249L85.0151 8.39947L84.5636 5.15197C84.5038 4.72132 84.6117 4.28371 84.8638 3.93541C85.1159 3.58711 85.4914 3.35665 85.9078 3.29472C86.3241 3.2328 86.7472 3.34448 87.0839 3.60521C87.4207 3.86593 87.6435 4.25434 87.7034 4.68498Z" fill="#FF8D8D"/>
<path d="M54.7178 40.0303H51.7956V41.602H54.7178V40.0303Z" fill="#FBBEBE"/>
<path opacity="0.1" d="M54.7178 40.0303H51.7956V41.602H54.7178V40.0303Z" fill="black"/>
<path d="M46.4187 17.4221C48.4845 17.4221 50.1591 15.69 50.1591 13.5533C50.1591 11.4167 48.4845 9.68457 46.4187 9.68457C44.3529 9.68457 42.6783 11.4167 42.6783 13.5533C42.6783 15.69 44.3529 17.4221 46.4187 17.4221Z" fill="#2F2E41"/>
<path d="M54.8931 39.2445C54.8931 39.2445 53.7242 38.8818 53.4904 39.0027C53.2566 39.1236 54.3086 40.0908 54.3086 40.0908L54.8931 39.2445Z" fill="#FBBEBE"/>
<path opacity="0.1" d="M54.8931 39.2445C54.8931 39.2445 53.7242 38.8818 53.4904 39.0027C53.2566 39.1236 54.3086 40.0908 54.3086 40.0908L54.8931 39.2445Z" fill="black"/>
<path d="M46.8278 70.1947C46.8278 70.1947 49.5163 70.5574 49.9838 70.5574C50.4514 70.5574 51.7371 71.041 51.0358 71.6455C50.3345 72.25 45.8927 73.0963 45.3083 72.7336C44.7238 72.3709 43.9056 71.2828 44.4901 71.1619C45.0745 71.041 46.8278 70.1947 46.8278 70.1947Z" fill="#3F3D56"/>
<path d="M42.0355 74.668L41.1004 76.3606L42.2692 76.9651L44.4901 77.4487L45.659 75.877L45.1914 74.0635L42.0355 74.668Z" fill="#FBBEBE"/>
<path d="M48.2305 62.2153C48.2305 62.2153 46.711 68.8648 46.9447 69.2275C47.1785 69.5902 47.6461 70.5574 47.1785 70.9201C46.711 71.2828 44.8407 71.4037 44.8407 71.4037L45.4252 67.8976L46.2434 63.6661L48.2305 62.2153Z" fill="#2F2E41"/>
<path d="M44.0225 48.191L45.5421 55.3241C45.5421 55.3241 45.7758 58.8302 45.1914 60.1601C44.607 61.49 41.451 75.5143 41.451 75.5143C41.451 75.5143 44.7238 75.6352 45.4252 75.2725C46.1265 74.9098 47.3093 66.5357 47.3093 66.5357C47.3093 66.5357 51.1527 58.5884 51.0358 57.0167C50.9189 55.445 51.6166 47.4612 50.6248 46.8589C49.6331 46.2566 44.0225 48.191 44.0225 48.191Z" fill="#2F2E41"/>
<path d="M44.2563 76.8442L45.6589 75.3934C45.6589 75.3934 49.3993 77.3278 49.9838 77.4487C50.5682 77.5696 51.854 78.5368 50.5682 78.8995C49.2825 79.2621 44.49 79.0204 43.3212 78.8995C42.1523 78.7786 39.8145 78.6577 40.1652 77.9323C40.5159 77.2069 41.1003 74.668 41.1003 74.668C41.1003 74.668 41.4233 74.206 41.6125 74.7997C41.8016 75.3934 41.9185 76.2397 42.3861 76.2397C42.8536 76.2397 44.2563 76.8442 44.2563 76.8442Z" fill="#3F3D56"/>
<path d="M62.2571 46.1357L65.5299 45.8939L67.7508 47.1029L67.517 48.5537L66.5819 48.7955C66.5819 48.7955 64.0104 47.7074 62.4908 48.0701C60.9713 48.4328 62.2571 46.1357 62.2571 46.1357Z" fill="#A0616A"/>
<path d="M66.1144 46.6193C66.1144 46.6193 67.4001 48.074 66.1144 48.6161C66.1144 48.6161 66.3481 49.0373 67.2833 49.1582C68.2184 49.2791 69.5041 50.1254 69.8548 50.1254C70.2055 50.1254 71.725 49.8836 70.7899 48.5537C69.8548 47.2238 66.1144 44.3223 66.1144 44.3223C66.1144 44.3223 65.0624 43.8387 64.7117 44.8059C64.3611 45.773 64.176 45.994 64.176 45.994C64.176 45.994 65.8806 46.3775 66.1144 46.6193Z" fill="#2F2E41"/>
<path d="M56.2957 58.2256C56.2957 58.2256 57.3477 62.3362 57.3477 62.578C57.3477 62.8198 58.7504 61.6108 58.7504 61.6108L58.9842 59.4346C58.9842 59.4346 58.0491 58.4674 58.0491 57.8629C58.0491 57.2584 56.2957 58.2256 56.2957 58.2256Z" fill="#A0616A"/>
<path d="M58.3997 61.1272C58.3997 61.1272 57.5815 62.2153 56.9971 61.8526L57.3478 65.9632C57.3478 65.9632 57.5815 68.0185 58.3997 67.1722C59.218 66.3259 60.0362 62.0944 60.0362 62.0944C60.0362 62.0944 61.2051 59.5555 60.27 59.1928C59.7392 58.9825 59.1916 58.8207 58.6335 58.7092C58.6335 58.7092 58.6335 61.2481 58.3997 61.1272Z" fill="#2F2E41"/>
<path d="M50.802 47.3447L54.3087 54.8405C54.3087 54.8405 55.4775 59.0719 55.9451 59.1928C56.4126 59.3137 58.166 58.4674 58.3997 58.3465C58.6335 58.2256 56.4126 53.5106 56.4126 52.6643C56.4126 51.818 53.7242 47.1029 53.7242 47.1029L50.802 47.3447Z" fill="#FF6584"/>
<path opacity="0.1" d="M50.802 47.3447L54.3087 54.8405C54.3087 54.8405 55.4775 59.0719 55.9451 59.1928C56.4126 59.3137 58.166 58.4674 58.3997 58.3465C58.6335 58.2256 56.4126 53.5106 56.4126 52.6643C56.4126 51.818 53.7242 47.1029 53.7242 47.1029L50.802 47.3447Z" fill="black"/>
<path d="M53.2567 34.2876C53.2567 34.2876 53.3735 36.8265 52.906 38.5191C52.4384 40.2116 53.4904 45.773 53.4904 45.773C53.4904 45.773 55.2437 45.8939 55.7113 45.773C56.1789 45.6521 62.4908 45.5312 62.8415 45.773C63.1921 46.0148 63.0753 50.2463 62.8415 50.1254C62.6077 50.0045 56.5295 48.6746 53.6073 49.1582C50.6851 49.6418 50.3344 48.9164 50.2176 48.6746C50.1007 48.4328 48.1136 41.9042 48.1136 41.9042L47.4122 38.7609L46.4771 35.3757L47.0616 32.1114L53.2567 34.2876Z" fill="#FF6584"/>
<path d="M46.1849 18.5103C47.9279 18.5103 49.3409 17.0488 49.3409 15.246C49.3409 13.4432 47.9279 11.9817 46.1849 11.9817C44.4419 11.9817 43.0289 13.4432 43.0289 15.246C43.0289 17.0488 44.4419 18.5103 46.1849 18.5103Z" fill="#A0616A"/>
<path d="M40.2821 26.1873C42.0251 26.1873 43.4381 24.7258 43.4381 22.923C43.4381 21.1202 42.0251 19.6588 40.2821 19.6588C38.5391 19.6588 37.1261 21.1202 37.1261 22.923C37.1261 24.7258 38.5391 26.1873 40.2821 26.1873Z" fill="#FBBEBE"/>
<path d="M47.0616 17.4826C47.0616 17.4826 49.1656 18.9334 48.8149 19.7797C48.4642 20.626 47.5291 21.5932 47.5291 21.5932L47.4122 22.9231L49.1656 23.5276L53.6073 23.7694C53.6073 23.7694 53.3735 19.6588 51.9709 18.5707C50.5682 17.4826 48.9318 16.7572 48.698 15.79C48.4642 14.8228 47.0616 17.4826 47.0616 17.4826Z" fill="#A0616A"/>
<path d="M52.8611 20.4647C52.0962 18.9866 49.944 19.1662 49.4979 20.778C49.4394 20.9732 49.4212 21.1789 49.4445 21.3818C49.4678 21.5847 49.532 21.7803 49.6331 21.9559C50.4513 23.4067 51.0358 24.4948 51.0358 24.4948L53.6073 24.253C53.6073 24.253 53.6579 22.0042 52.8611 20.4647Z" fill="#A0616A"/>
<path d="M47.9133 21.1596C47.9133 21.1596 44.8407 23.1649 45.0745 24.4948C45.3083 25.8247 45.542 28.1217 45.542 28.968C45.542 29.8143 46.3603 32.4741 47.5291 32.9577C48.698 33.4413 48.698 32.1114 50.3344 33.6831C51.9709 35.2548 53.7242 35.9802 53.6073 36.222C53.4904 36.4638 54.0749 34.0458 53.1398 33.0786C52.2047 32.1114 51.1527 29.3307 52.0878 28.1217C53.0229 26.9127 53.8411 23.7694 53.8411 23.7694C53.8411 23.7694 53.7242 23.044 53.0229 23.1649C52.3215 23.2858 47.9967 22.8022 47.7629 22.1977C47.6947 22.0268 47.6727 21.8399 47.6992 21.6571C47.7257 21.4743 47.7997 21.3023 47.9133 21.1596Z" fill="#2F2E41"/>
<path d="M47.4772 22.1848C47.4772 22.1848 50.6851 18.5707 51.1527 18.6916C51.6202 18.8125 52.9667 20.2432 52.9667 20.2432L51.1527 18.9334L47.4771 22.3885L47.4772 22.1848Z" fill="#2F2E41"/>
<path d="M42.9705 23.5275C42.9705 23.5275 43.4096 28.4174 44.0083 28.8741C44.607 29.3307 39.4639 29.2098 39.4639 29.2098C39.4639 29.2098 40.6328 25.4619 39.9314 24.9783C39.2301 24.4947 42.9705 23.5275 42.9705 23.5275Z" fill="#FBBEBE"/>
<path d="M44.1394 27.5172C44.1394 27.5172 40.1652 26.4291 39.6976 27.0336C39.2301 27.6381 38.295 32.8368 38.295 32.8368C38.295 32.8368 38.7625 36.3429 39.5808 38.8817C40.399 41.4206 41.451 50.3672 42.2692 50.3672C43.0874 50.3672 44.4901 49.0373 44.8407 49.0373C45.1914 49.0373 47.2954 47.9492 48.5811 48.191C49.3197 48.3413 50.0828 48.2997 50.802 48.0701C50.802 48.0701 50.2176 42.9923 48.8149 41.6624C47.4123 40.3325 46.7109 31.1442 46.7109 31.1442C46.7109 31.1442 44.7238 27.2754 44.1394 27.5172Z" fill="#3F3D56"/>
<path d="M50.2176 39.0027C50.2176 39.0027 51.5466 40.8685 52.8692 40.9633L53.6073 40.9371C53.6073 40.9371 52.4384 44.0805 53.0229 44.2014C53.6073 44.3223 55.3606 41.9043 54.7762 40.5744C54.1918 39.2445 52.4384 37.1892 52.4384 37.1892L50.2176 39.0027Z" fill="#FBBEBE"/>
<path d="M54.8931 39.0027C54.8931 39.0027 52.906 40.9371 53.7242 41.7834C54.5425 42.6297 55.5944 41.7834 55.5944 41.7834C55.5944 41.7834 56.4127 40.5744 54.8931 39.0027Z" fill="#FBBEBE"/>
<path opacity="0.1" d="M54.8931 39.0027C54.8931 39.0027 52.906 40.9371 53.7242 41.7834C54.5425 42.6297 55.5944 41.7834 55.5944 41.7834C55.5944 41.7834 56.4127 40.5744 54.8931 39.0027Z" fill="black"/>
<path d="M47.237 16.6967C49.3027 16.6967 50.9774 14.9646 50.9774 12.8279C50.9774 10.6913 49.3027 8.95917 47.237 8.95917C45.1712 8.95917 43.4965 10.6913 43.4965 12.8279C43.4965 14.9646 45.1712 16.6967 47.237 16.6967Z" fill="#2F2E41"/>
<path d="M48.9902 11.8608C50.2168 11.8608 51.2111 10.8323 51.2111 9.56369C51.2111 8.29504 50.2168 7.2666 48.9902 7.2666C47.7637 7.2666 46.7694 8.29504 46.7694 9.56369C46.7694 10.8323 47.7637 11.8608 48.9902 11.8608Z" fill="#2F2E41"/>
<path d="M47.2369 8.83829C47.237 8.27096 47.44 7.72372 47.8069 7.30198C48.1738 6.88025 48.6786 6.61385 49.224 6.55411C49.1464 6.5456 49.0683 6.54129 48.9903 6.5412C48.6886 6.54101 48.3901 6.60436 48.113 6.72741C47.8358 6.85045 47.5858 7.0306 47.3781 7.25687C47.1705 7.48314 47.0095 7.75079 46.9052 8.04349C46.8008 8.3362 46.7552 8.64782 46.7711 8.95936C46.787 9.2709 46.8641 9.57582 46.9977 9.85554C47.1312 10.1353 47.3185 10.3839 47.548 10.5863C47.7775 10.7887 48.0445 10.9406 48.3327 11.0328C48.6208 11.125 48.9241 11.1555 49.224 11.1225C48.6786 11.0627 48.1738 10.7963 47.8069 10.3746C47.44 9.95286 47.237 9.40562 47.2369 8.83829Z" fill="#2F2E41"/>
<path d="M46.0096 16.6967C47.6558 16.6967 48.9902 15.6683 48.9902 14.3996C48.9902 13.131 47.6558 12.1025 46.0096 12.1025C44.3634 12.1025 43.0289 13.131 43.0289 14.3996C43.0289 15.6683 44.3634 16.6967 46.0096 16.6967Z" fill="#2F2E41"/>
<path d="M40.4137 21.7112C40.3728 21.9381 40.2754 22.1661 40.3576 22.3998C40.4186 22.5729 40.567 22.7102 40.6561 22.8741C40.8355 23.2043 40.7166 23.6268 40.408 23.7562C40.2345 23.6526 40.0307 23.6169 39.8339 23.6557C39.7442 23.6766 39.6651 23.7308 39.6117 23.8081C39.5583 23.8855 39.5342 23.9804 39.5442 24.0749C39.5853 24.3541 39.8999 24.533 40.06 24.782C40.1583 24.9686 40.2244 25.1715 40.2554 25.3815C40.3341 25.7075 40.4727 26.0312 40.4887 26.3574C40.5047 26.6835 40.3513 27.0282 40.0385 27.0749C39.7754 27.1142 39.4925 26.9297 39.3023 26.7058C39.112 26.4819 38.9836 26.2163 38.8093 25.9806C38.243 25.2147 37.275 24.8577 36.6195 24.1626C35.7796 23.272 35.6017 21.9526 35.9022 20.901C36.0284 20.4593 36.2372 20.0372 36.592 19.7677C36.9644 19.4849 37.4616 19.3945 37.8786 19.1746C38.3246 18.9394 38.6667 18.5632 39.0611 18.2562C39.4555 17.9491 39.9441 17.7029 40.4824 17.7857C40.8578 17.8435 41.2139 18.0549 41.5865 18.1546C41.9916 18.2691 42.4227 18.2323 42.8041 18.0508L42.458 18.435C42.707 18.5372 42.9754 18.5792 43.2425 18.558C43.1349 18.7861 42.9462 18.9624 42.7159 19.05C42.9023 19.2008 43.1365 19.2738 43.3723 19.2546C43.1154 19.5583 42.8394 19.8742 42.4435 19.98C42.2496 20.0318 42.0384 20.0293 41.8382 20.0632C41.4116 20.1353 41.0524 20.3683 40.704 20.5969C40.5211 20.7169 40.291 20.8531 40.2923 21.1023C40.2934 21.3098 40.4556 21.4793 40.4137 21.7112Z" fill="#2F2E41"/>
<path d="M41.8016 28.7262C41.8016 28.7262 40.7496 32.7159 42.6198 33.5622C44.4901 34.4085 48.3474 37.5519 49.0487 38.64C49.75 39.7281 50.5682 40.0908 50.5682 40.0908C50.5682 40.0908 53.3736 37.6728 52.7891 36.9474C52.2047 36.222 49.8669 34.0458 49.8669 34.0458C49.8669 34.0458 43.9056 27.3963 41.8016 28.7262Z" fill="#3F3D56"/>
<path d="M51.0358 28.8471C51.0358 28.8471 46.7414 27.5774 45.4404 27.366C44.1394 27.1545 40.7496 27.5172 41.451 28.1217C42.1523 28.7262 46.2434 29.2098 46.2434 29.2098L51.1527 31.1442L51.0358 28.8471Z" fill="#A0616A"/>
<path d="M51.0358 23.8902C51.0358 23.8902 51.3864 26.3082 51.3864 27.1545C51.3864 28.0008 51.9709 28.7262 51.5033 28.7262C51.0358 28.7262 50.6851 28.2426 50.6851 28.7262C50.6851 29.2098 49.9838 32.1114 50.6851 32.1114C51.3864 32.1114 53.1397 31.6278 53.4904 31.6278C53.8411 31.6278 55.01 31.386 54.8931 30.0561C54.7762 28.7262 54.3086 27.2754 54.5424 27.0336C54.7762 26.7918 54.8931 25.5828 54.6593 25.341C54.4255 25.0992 53.8411 23.5275 53.8411 23.5275L51.0358 23.8902Z" fill="#2F2E41"/>
<g opacity="0.3">
<path opacity="0.3" d="M75.7424 48.4991C75.5267 48.4723 75.3095 48.5352 75.1386 48.6741C74.9678 48.8129 74.8573 49.0162 74.8314 49.2394C74.8055 49.4625 74.8663 49.6871 75.0005 49.8638C75.1347 50.0405 75.3313 50.1549 75.5471 50.1817L77.1738 50.3837L77.3691 48.7012C77.382 48.5907 77.3736 48.4787 77.3446 48.3715C77.3156 48.2644 77.2664 48.1642 77.2 48.0767C77.1335 47.9892 77.051 47.9161 76.9573 47.8615C76.8635 47.807 76.7603 47.7721 76.6534 47.7589C76.5466 47.7456 76.4383 47.7542 76.3347 47.7842C76.2312 47.8143 76.1343 47.8651 76.0497 47.9338C75.9651 48.0026 75.8944 48.0879 75.8417 48.1849C75.789 48.2818 75.7552 48.3886 75.7424 48.4991Z" fill="#33CAFF"/>
</g>
<g opacity="0.3">
<path opacity="0.3" d="M95.348 40.4138C95.1587 40.3038 94.935 40.2759 94.7259 40.3364C94.5168 40.3969 94.3394 40.5407 94.2328 40.7363C94.1262 40.932 94.0991 41.1634 94.1573 41.3797C94.2155 41.596 94.3544 41.7796 94.5434 41.8901L95.9707 42.7222L96.7753 41.246C96.8282 41.149 96.8622 41.0422 96.8752 40.9317C96.8883 40.8212 96.8801 40.7091 96.8512 40.6018C96.8224 40.4945 96.7733 40.3942 96.7069 40.3065C96.6405 40.2189 96.5581 40.1456 96.4643 40.0909C96.3705 40.0363 96.2673 40.0012 96.1604 39.9879C96.0535 39.9745 95.9451 39.9831 95.8414 40.0131C95.7378 40.043 95.6408 40.0939 95.5561 40.1626C95.4715 40.2314 95.4007 40.3168 95.348 40.4138Z" fill="#33CAFF"/>
</g>
<g opacity="0.3">
<path opacity="0.3" d="M86.613 51.8843C86.5062 51.871 86.3979 51.8797 86.2943 51.9097C86.1907 51.9397 86.0938 51.9905 86.0092 52.0593C85.9246 52.128 85.854 52.2133 85.8012 52.3103C85.7485 52.4073 85.7148 52.5141 85.7019 52.6246C85.6891 52.735 85.6975 52.847 85.7265 52.9542C85.7555 53.0613 85.8047 53.1615 85.8711 53.249C85.9376 53.3365 86.02 53.4096 86.1138 53.4642C86.2076 53.5187 86.3108 53.5536 86.4177 53.5669L88.0444 53.7689L88.2397 52.0863C88.2656 51.8632 88.2048 51.6386 88.0706 51.4619C87.9363 51.2852 87.7398 51.1708 87.524 51.144C87.3083 51.1173 87.0911 51.1802 86.9203 51.319C86.7494 51.4578 86.6389 51.6612 86.613 51.8843Z" fill="#33CAFF"/>
</g>
</g>
<defs>
<clipPath id="clip0">
<rect width="116.303" height="80.0451" fill="white" transform="translate(0.306641 0.00292969)"/>
</clipPath>
</defs>
</svg>
