<svg width="96" height="84" viewBox="0 0 96 84" fill="none" xmlns="http://www.w3.org/2000/svg">
<g clip-path="url(#clip0)">
<path d="M94.813 14.2181C94.3404 17.2445 93.2648 20.1402 92.8029 23.1676C92.4343 25.5857 92.4586 28.0819 91.771 30.424C91.0767 32.7924 89.686 34.8911 89.0072 37.2616C88.9916 37.3153 88.9761 37.3701 88.9615 37.4238C88.7947 38.0486 88.6741 38.6858 88.6007 39.3299C88.5754 39.5435 88.5543 39.7571 88.5375 39.9707C88.3615 42.2012 88.6065 44.4956 88.6824 46.7505C88.7874 49.8742 88.4616 53.2596 86.4816 55.6067C85.0987 57.2452 83.1012 58.1414 81.1718 58.9931C78.2543 60.2766 75.2931 61.5724 72.1548 62.0134C66.2732 62.8387 60.199 60.6021 54.4175 61.9931C49.5725 63.1591 45.5678 66.73 40.8346 68.3208C36.0431 69.9318 30.8374 69.4056 25.8952 68.412C16.8198 66.587 7.54319 62.8752 1.91244 55.2316C1.16946 54.2228 0.478013 53.1024 0.336028 51.8391C0.230999 50.9135 0.433278 49.9827 0.627777 49.0743C1.50302 45.0188 2.45121 40.8091 4.97289 37.5951C7.14447 34.8283 10.3829 32.9424 11.8893 29.7305C13.8615 25.5259 12.2423 20.5042 10.3333 16.2732C9.87329 15.2594 9.38899 14.2161 9.29174 13.0947C9.10405 10.9808 10.3741 8.95304 12.0342 7.71712C13.6942 6.4812 15.7044 5.88301 17.6688 5.30307C21.161 4.28919 25.1638 3.63625 28.411 1.94409C31.5804 0.291461 34.105 -0.209396 37.747 0.0846296C43.1087 0.518462 48.4249 1.42989 53.6375 2.80893C59.1613 4.27398 64.8679 6.27639 70.4432 5.01716C72.6664 4.51022 74.7553 3.50952 76.9531 2.89916C78.7911 2.39222 80.6904 2.15801 82.5936 2.04547C86.4418 1.81938 90.8024 2.32328 93.223 5.4511C95.0649 7.83777 95.2866 11.1937 94.813 14.2181Z" fill="#FFDE33" fill-opacity="0.22"/>
<path d="M52.9371 81.9413C52.9371 81.9413 50.2919 72.5731 53.4331 65.6777C54.7518 62.7831 55.1903 59.5346 54.5806 56.3946C54.2879 54.9041 53.8647 53.4448 53.3164 52.0349" stroke="#535461" stroke-width="2" stroke-miterlimit="10"/>
<path d="M55.2769 47.6833C55.2769 48.831 53.2823 52.1616 53.2823 52.1616C53.2823 52.1616 51.2887 48.827 51.2887 47.6833C51.3049 47.1433 51.522 46.6311 51.8942 46.255C52.2663 45.879 52.7641 45.6688 53.2823 45.6688C53.8006 45.6688 54.2984 45.879 54.6705 46.255C55.0426 46.6311 55.2598 47.1433 55.276 47.6833H55.2769Z" fill="#C12727" fill-opacity="0.96"/>
<path d="M58.5727 54.0383C57.9746 55.0026 54.5641 56.6673 54.5641 56.6673C54.5641 56.6673 54.6263 52.7426 55.2244 51.7784C55.3634 51.5418 55.5465 51.3366 55.7627 51.1748C55.979 51.0131 56.2241 50.8981 56.4836 50.8367C56.7432 50.7753 57.0119 50.7686 57.2739 50.8171C57.536 50.8656 57.7861 50.9683 58.0095 51.1191C58.2329 51.27 58.4251 51.4659 58.5747 51.6953C58.7243 51.9248 58.8284 52.1831 58.8808 52.4552C58.9332 52.7272 58.9329 53.0074 58.8798 53.2793C58.8267 53.5512 58.722 53.8093 58.5717 54.0383H58.5727Z" fill="#C12727" fill-opacity="0.96"/>
<path d="M58.4288 64.9071C57.4456 65.4262 53.6957 65.0673 53.6957 65.0673C53.6957 65.0673 55.6494 61.7114 56.6326 61.1953C57.1032 60.9616 57.6429 60.9293 58.1361 61.1052C58.6292 61.2811 59.0368 61.6514 59.2714 62.1366C59.5061 62.6219 59.5492 63.1837 59.3915 63.7017C59.2338 64.2196 58.8879 64.6527 58.4278 64.9081L58.4288 64.9071Z" fill="#C12727" fill-opacity="0.96"/>
<path d="M56.5431 73.1043C55.6582 73.7867 51.9043 74.0959 51.9043 74.0959C51.9043 74.0959 53.2862 70.4459 54.1712 69.7616C54.3819 69.5992 54.6213 69.4817 54.8756 69.4158C55.1298 69.3498 55.3941 69.3367 55.6532 69.3773C55.9123 69.4178 56.1613 69.5111 56.3858 69.652C56.6103 69.7928 56.8061 69.9784 56.9618 70.1981C57.1175 70.4177 57.2303 70.6673 57.2935 70.9324C57.3568 71.1975 57.3693 71.473 57.3304 71.7431C57.2915 72.0133 57.202 72.2728 57.0669 72.5069C56.9318 72.741 56.7539 72.945 56.5431 73.1074V73.1043Z" fill="#C12727" fill-opacity="0.96"/>
<path d="M50.3775 56.8894C51.1672 57.6894 54.851 58.5187 54.851 58.5187C54.851 58.5187 53.9495 54.7075 53.1598 53.9076C52.9728 53.7132 52.7506 53.5594 52.5061 53.4552C52.2616 53.351 51.9997 53.2985 51.7356 53.3007C51.4715 53.3029 51.2104 53.3597 50.9675 53.4679C50.7246 53.5762 50.5048 53.7336 50.3208 53.9311C50.1367 54.1286 49.9921 54.3623 49.8954 54.6185C49.7987 54.8747 49.7517 55.1485 49.7573 55.4238C49.7628 55.6991 49.8208 55.9705 49.9277 56.2223C50.0347 56.474 50.1886 56.7011 50.3804 56.8904L50.3775 56.8894Z" fill="#C12727" fill-opacity="0.96"/>
<path d="M48.2896 66.506C49.2728 67.0231 53.0227 66.6662 53.0227 66.6662C53.0227 66.6662 51.0699 63.3102 50.0848 62.7901C49.8503 62.6599 49.5932 62.5799 49.3286 62.5547C49.064 62.5295 48.7972 62.5597 48.544 62.6435C48.2907 62.7273 48.0561 62.8629 47.8538 63.0426C47.6516 63.2222 47.4858 63.4422 47.3662 63.6895C47.2466 63.9368 47.1756 64.2066 47.1574 64.483C47.1392 64.7593 47.1741 65.0367 47.2601 65.2988C47.3461 65.5608 47.4815 65.8024 47.6583 66.0092C47.8351 66.2159 48.0497 66.3838 48.2896 66.5029V66.506Z" fill="#C12727" fill-opacity="0.96"/>
<path d="M47.4902 76.1429C48.3752 76.8253 52.129 77.1345 52.129 77.1345C52.129 77.1345 50.7471 73.4845 49.8621 72.8002C49.4365 72.4722 48.9034 72.334 48.3801 72.4159C47.8568 72.4977 47.3861 72.7929 47.0715 73.2366C46.757 73.6803 46.6244 74.2361 46.7029 74.7817C46.7814 75.3273 47.0646 75.818 47.4902 76.146V76.1429Z" fill="#C12727" fill-opacity="0.96"/>
<path d="M14.5041 70.8373C14.5041 70.8373 11.857 61.468 15.0001 54.5726C16.3188 51.678 16.7574 48.4295 16.1476 45.2896C15.8549 43.7991 15.4317 42.3398 14.8834 40.9299" stroke="#535461" stroke-width="2" stroke-miterlimit="10"/>
<path d="M16.8469 36.5742C16.8469 37.7219 14.8523 41.0525 14.8523 41.0525C14.8523 41.0525 12.8577 37.723 12.8577 36.5742C12.8739 36.0342 13.091 35.522 13.4631 35.146C13.8352 34.77 14.3331 34.5597 14.8513 34.5597C15.3695 34.5597 15.8674 34.77 16.2395 35.146C16.6116 35.522 16.8288 36.0342 16.8449 36.5742H16.8469Z" fill="#C12727" fill-opacity="0.96"/>
<path d="M20.1446 42.9343C19.5465 43.8985 16.1359 45.5633 16.1359 45.5633C16.1359 45.5633 16.1982 41.6385 16.7963 40.6743C16.9367 40.4407 17.1202 40.2385 17.3362 40.0796C17.5522 39.9206 17.7964 39.808 18.0546 39.7483C18.3127 39.6886 18.5797 39.683 18.8399 39.7318C19.1002 39.7807 19.3485 39.883 19.5705 40.0328C19.7925 40.1826 19.9836 40.377 20.1329 40.6045C20.2822 40.8321 20.3866 41.0883 20.44 41.3583C20.4934 41.6283 20.4948 41.9066 20.4441 42.1772C20.3934 42.4478 20.2916 42.7051 20.1446 42.9343Z" fill="#C12727" fill-opacity="0.96"/>
<path d="M19.9997 53.8021C19.0165 54.3192 15.2665 53.9623 15.2665 53.9623C15.2665 53.9623 17.2203 50.6063 18.2035 50.0903C18.438 49.9601 18.6951 49.88 18.9597 49.8549C19.2243 49.8297 19.491 49.8599 19.7443 49.9437C19.9975 50.0274 20.2322 50.1631 20.4344 50.3428C20.6367 50.5224 20.8025 50.7423 20.9221 50.9897C21.0417 51.237 21.1127 51.5068 21.1309 51.7831C21.1491 52.0595 21.1142 52.3368 21.0282 52.5989C20.9421 52.861 20.8068 53.1025 20.63 53.3093C20.4532 53.5161 20.2386 53.684 19.9987 53.8031L19.9997 53.8021Z" fill="#C12727" fill-opacity="0.96"/>
<path d="M18.114 62.0003C17.229 62.6827 13.4752 62.9919 13.4752 62.9919C13.4752 62.9919 14.8571 59.3419 15.7421 58.6576C16.1677 58.3297 16.7008 58.1914 17.2241 58.2733C17.7474 58.3551 18.2181 58.6504 18.5327 59.0941C18.8472 59.5377 18.9798 60.0935 18.9013 60.6391C18.8228 61.1847 18.5396 61.6755 18.114 62.0034V62.0003Z" fill="#C12727" fill-opacity="0.96"/>
<path d="M11.9484 45.7854C12.738 46.5853 16.4219 47.4147 16.4219 47.4147C16.4219 47.4147 15.5204 43.6035 14.7307 42.8035C14.3498 42.4277 13.8421 42.2234 13.3178 42.2349C12.7934 42.2464 12.2945 42.4727 11.929 42.8649C11.5636 43.2571 11.361 43.7836 11.3652 44.3304C11.3693 44.8772 11.5799 45.4003 11.9513 45.7864L11.9484 45.7854Z" fill="#C12727" fill-opacity="0.96"/>
<path d="M9.86043 55.402C10.8436 55.9191 14.5936 55.5622 14.5936 55.5622C14.5936 55.5622 12.6398 52.2063 11.6566 51.6902C11.4221 51.56 11.165 51.48 10.9004 51.4548C10.6358 51.4296 10.3691 51.4598 10.1158 51.5436C9.86258 51.6274 9.62794 51.763 9.42568 51.9427C9.22343 52.1223 9.05763 52.3422 8.93803 52.5896C8.81844 52.8369 8.74744 53.1067 8.72923 53.383C8.71101 53.6594 8.74593 53.9367 8.83195 54.1988C8.91797 54.4609 9.05334 54.7024 9.23012 54.9092C9.40691 55.116 9.62153 55.2839 9.86141 55.403L9.86043 55.402Z" fill="#C12727" fill-opacity="0.96"/>
<path d="M9.05808 65.0389C9.94305 65.7213 13.6969 66.0305 13.6969 66.0305C13.6969 66.0305 12.315 62.3805 11.43 61.6961C11.2193 61.5338 10.9799 61.4163 10.7257 61.3503C10.4714 61.2844 10.2071 61.2713 9.948 61.3118C9.68887 61.3524 9.43994 61.4457 9.21541 61.5865C8.99088 61.7274 8.79516 61.9129 8.63942 62.1326C8.48368 62.3523 8.37096 62.6018 8.30772 62.8669C8.24447 63.132 8.23193 63.4075 8.2708 63.6777C8.30968 63.9478 8.39921 64.2074 8.53429 64.4415C8.66937 64.6755 8.84736 64.8796 9.05808 65.042V65.0389Z" fill="#C12727" fill-opacity="0.96"/>
<path d="M24.3623 73.7542C24.3623 73.7542 22.9298 68.6848 24.6307 64.9487C25.3541 63.3877 25.5721 61.6241 25.2521 59.9229C25.0948 59.1164 24.8669 58.3267 24.5714 57.5636" stroke="#535461" stroke-width="2" stroke-miterlimit="10"/>
<path d="M25.6285 55.2043C25.6285 55.8258 24.549 57.6285 24.549 57.6285C24.549 57.6285 23.4695 55.8258 23.4695 55.2043C23.4695 54.9058 23.5833 54.6195 23.7857 54.4085C23.9881 54.1974 24.2627 54.0789 24.549 54.0789C24.8353 54.0789 25.1099 54.1974 25.3123 54.4085C25.5147 54.6195 25.6285 54.9058 25.6285 55.2043Z" fill="#FFCBDE"/>
<path d="M27.413 58.6474C27.0891 59.1695 25.2433 60.0668 25.2433 60.0668C25.2433 60.0668 25.2764 57.9377 25.6012 57.4206C25.6783 57.2965 25.7781 57.1895 25.8948 57.1056C26.0116 57.0217 26.143 56.9626 26.2817 56.9316C26.4204 56.9007 26.5635 56.8986 26.703 56.9253C26.8424 56.9521 26.9755 57.0072 27.0945 57.0875C27.2135 57.1679 27.3162 57.2719 27.3967 57.3936C27.4771 57.5154 27.5338 57.6524 27.5635 57.797C27.5932 57.9415 27.5952 58.0908 27.5696 58.2362C27.5439 58.3816 27.491 58.5203 27.414 58.6444L27.413 58.6474Z" fill="#FFCBDE"/>
<path d="M27.3352 64.532C26.8033 64.8118 24.7727 64.6182 24.7727 64.6182C24.7727 64.6182 25.8308 62.8013 26.3627 62.5215C26.6185 62.387 26.9149 62.364 27.187 62.4574C27.459 62.5509 27.6842 62.7532 27.8132 63.0198C27.9422 63.2864 27.9643 63.5955 27.8746 63.8791C27.785 64.1627 27.591 64.3975 27.3352 64.532Z" fill="#FFCBDE"/>
<path d="M26.3151 68.9748C25.8356 69.3449 23.8031 69.5112 23.8031 69.5112C23.8031 69.5112 24.5509 67.5341 25.0304 67.1651C25.2606 66.9875 25.549 66.9125 25.8323 66.9566C26.1155 67.0007 26.3703 67.1603 26.5407 67.4003C26.711 67.6403 26.783 67.941 26.7406 68.2363C26.6983 68.5316 26.5452 68.7972 26.3151 68.9748Z" fill="#FFCBDE"/>
<path d="M22.9765 60.1916C23.4044 60.6245 25.397 61.0736 25.397 61.0736C25.397 61.0736 24.9107 59.0104 24.4809 58.5775C24.2755 58.3695 23.9992 58.2551 23.7129 58.2595C23.4265 58.2638 23.1536 58.3866 22.9541 58.6008C22.7546 58.815 22.6449 59.103 22.6491 59.4015C22.6533 59.7 22.771 59.9846 22.9765 60.1926V60.1916Z" fill="#FFCBDE"/>
<path d="M21.8464 65.3978C22.3784 65.6777 24.4089 65.484 24.4089 65.484C24.4089 65.484 23.3538 63.6671 22.8179 63.3873C22.6913 63.3207 22.5533 63.2808 22.4119 63.2698C22.2705 63.2589 22.1284 63.277 21.9937 63.3233C21.859 63.3696 21.7344 63.443 21.6269 63.5395C21.5195 63.636 21.4313 63.7536 21.3675 63.8856C21.3036 64.0176 21.2653 64.1615 21.2548 64.3089C21.2442 64.4564 21.2617 64.6045 21.306 64.7449C21.3504 64.8854 21.4209 65.0153 21.5135 65.1273C21.606 65.2393 21.7188 65.3313 21.8454 65.3978H21.8464Z" fill="#FFCBDE"/>
<path d="M21.4088 70.6153C21.8883 70.9854 23.9208 71.1516 23.9208 71.1516C23.9208 71.1516 23.1729 69.1746 22.6935 68.8055C22.5795 68.7176 22.45 68.6539 22.3124 68.6181C22.1748 68.5823 22.0318 68.5752 21.8916 68.597C21.7514 68.6189 21.6166 68.6693 21.4951 68.7454C21.3735 68.8215 21.2675 68.9219 21.1832 69.0407C21.0988 69.1596 21.0378 69.2945 21.0035 69.438C20.9691 69.5814 20.9623 69.7305 20.9832 69.8767C21.0042 70.0229 21.0525 70.1634 21.1256 70.2901C21.1986 70.4169 21.2948 70.5273 21.4088 70.6153Z" fill="#FFCBDE"/>
<path d="M8.10115 44.0041C8.13984 44.0041 8.17694 43.9881 8.2043 43.9597C8.23166 43.9312 8.24703 43.8927 8.24703 43.8525C8.24703 43.8122 8.23166 43.7737 8.2043 43.7452C8.17694 43.7168 8.13984 43.7008 8.10115 43.7008C8.06246 43.7008 8.02536 43.7168 7.998 43.7452C7.97064 43.7737 7.95528 43.8122 7.95528 43.8525C7.95528 43.8927 7.97064 43.9312 7.998 43.9597C8.02536 43.9881 8.06246 44.0041 8.10115 44.0041Z" fill="#72351C"/>
<path d="M35.0792 11.285L36.1421 13.3969C36.3639 13.837 36.5885 14.2871 36.6284 14.7647C36.6828 15.3537 36.4592 15.9418 36.5126 16.5309C36.5622 17.0723 36.8423 17.5792 37.1681 18.0517C39.1909 20.9615 43.2472 22.7682 47.2286 22.533C45.7231 23.1961 44.0028 23.3979 42.3204 23.5885C41.5074 23.6807 40.6788 23.773 39.8707 23.6564C39.1306 23.555 38.4411 23.2742 37.7837 22.968C36.4825 22.3597 35.2455 21.6124 34.3566 20.6056C33.4678 19.5989 32.9621 18.3021 33.2169 17.0642C33.3063 16.6292 33.4862 16.2095 33.5592 15.7725C33.6691 15.1114 33.5319 14.4311 33.6837 13.7772C33.8159 13.2084 34.1592 12.6893 34.3129 12.1245C34.4519 11.6176 33.9793 10.8835 34.3323 10.5023C34.7126 10.5956 34.9265 10.9809 35.0792 11.285Z" fill="url(#paint0_linear)"/>
<path d="M23.7156 45.6201L29.1761 38.016L28.3135 29.0452L40.4289 28.0262L40.3842 26.2185L43.0663 32.1659L51.209 40.2577L51.2654 40.3418L53.1316 39.3695L46.0324 30.4139L42.6831 24.4655L42.6754 24.4381C41.8429 21.6448 39.3611 19.6921 36.4951 19.5715C35.7833 19.542 35.1716 19.4883 34.9236 19.393C34.1573 19.101 34.5404 16.176 34.5404 16.176L29.3677 16.76C29.3677 16.76 29.8491 17.9563 30.2041 19.2298C30.3931 19.9249 30.3542 20.6659 30.0935 21.3354C29.8328 22.0048 29.3651 22.5644 28.7648 22.9254C27.1874 23.8946 24.0102 25.5726 24.4352 27.2415C25.1062 29.8776 25.8239 36.0622 25.8239 36.0622L22.6624 45.324" fill="url(#paint1_linear)"/>
<path d="M22.6614 45.3271C22.6614 45.3271 18.3503 49.5195 20.1708 49.5195C21.9913 49.5195 23.7156 45.6201 23.7156 45.6201" fill="url(#paint2_linear)"/>
<path d="M53.2201 39.478L53.1316 39.3665L51.2644 40.3408C51.634 40.8792 53.7239 43.8296 54.9434 43.4747C56.2864 43.0854 53.2201 39.478 53.2201 39.478Z" fill="url(#paint3_linear)"/>
<path d="M38.9468 68.4344C38.9468 68.4344 39.9047 73.4025 38.4674 74.5765C37.03 75.7506 36.1684 75.4535 36.1684 75.4535V68.7264L38.9468 68.4344Z" fill="url(#paint4_linear)"/>
<path d="M20.8778 48.5472C20.8778 48.5472 19.1166 50.6905 19.7877 51.1782C20.4587 51.6659 21.9923 51.3719 22.0896 52.4486C22.1868 53.5253 25.538 53.2283 25.538 53.2283C25.538 53.2283 29.1781 55.5683 32.2483 54.9833C35.3184 54.3983 40.956 53.6146 40.956 53.6146L44.0213 53.5132C44.0213 53.5132 46.5148 52.2458 46.9942 52.4486C47.4736 52.6514 49.2932 50.9866 48.6231 49.8125C47.9531 48.6384 20.8778 48.5472 20.8778 48.5472Z" fill="url(#paint5_linear)"/>
<g opacity="0.2">
<path opacity="0.2" d="M20.8778 48.5472C20.8778 48.5472 19.1166 50.6905 19.7877 51.1782C20.4587 51.6659 21.9923 51.3719 22.0896 52.4486C22.1868 53.5253 25.538 53.2283 25.538 53.2283C25.538 53.2283 29.1781 55.5683 32.2483 54.9833C35.3184 54.3983 40.956 53.6146 40.956 53.6146L44.0213 53.5132C44.0213 53.5132 46.5148 52.2458 46.9942 52.4486C47.4736 52.6514 49.2932 50.9866 48.6231 49.8125C47.9531 48.6384 20.8778 48.5472 20.8778 48.5472Z" fill="url(#paint6_linear)"/>
</g>
<path d="M41.6289 51.7621L40.2879 60.6346C40.2879 60.6346 41.342 62.9746 39.2337 66.4847L38.8505 68.4344L36.2637 68.7264L35.3067 49.0317L41.6289 51.7621Z" fill="url(#paint7_linear)"/>
<g opacity="0.1">
<path opacity="0.1" d="M29.463 50.4948L32.1452 57.518C32.1452 57.518 32.6246 60.443 32.4369 61.028C32.2492 61.613 31.9575 67.2674 33.0117 69.0225C34.0659 70.7775 35.5022 77.4072 35.5022 77.4072L38.376 77.1152C38.376 77.1152 37.3179 75.2609 37.3179 74.0888V68.5317C37.3179 68.5317 37.3179 64.7297 36.6469 61.9993L36.9026 60.1743C36.9869 59.5757 36.9704 58.9664 36.854 58.3737L35.1142 49.5195L29.463 50.4948Z" fill="url(#paint8_linear)"/>
</g>
<path d="M29.2714 50.4948L31.9536 57.518C31.9536 57.518 32.433 60.443 32.2453 61.028C32.0576 61.613 31.7659 67.2674 32.8201 69.0225C33.8743 70.7775 35.3106 77.4072 35.3106 77.4072L38.1844 77.1152C38.1844 77.1152 37.1263 75.2609 37.1263 74.0888V68.5317C37.1263 68.5317 37.1263 64.7297 36.4553 61.9993L36.711 60.1743C36.7953 59.5757 36.7788 58.9664 36.6624 58.3737L34.9265 49.5195L29.2714 50.4948Z" fill="url(#paint9_linear)"/>
<path d="M35.3067 77.4042C35.3067 77.4042 35.8815 79.1593 35.3067 79.6469C34.732 80.1346 34.9265 83.3516 34.9265 83.3516C34.9265 83.3516 38.4712 84.8137 38.9497 82.4746C38.9497 82.4746 37.9918 78.0876 38.1834 77.1122L35.3067 77.4042Z" fill="url(#paint10_linear)"/>
<g opacity="0.1">
<path opacity="0.1" d="M33.1994 27.8751C33.1994 27.8751 37.8936 24.5597 40.3842 27.8751C40.3842 27.8751 40.9589 31.9702 40.3842 32.7499C40.3842 32.7499 39.9047 35.9669 40.6759 36.4546C41.4471 36.9422 42.017 38.5016 42.017 38.5016C42.017 38.5016 44.7954 39.7689 45.1786 40.647C45.5617 41.525 49.5849 50.2991 49.5849 50.2991C49.5849 50.2991 44.2206 53.2241 42.3048 52.9352C40.389 52.6462 36.1781 52.9352 36.1781 52.9352C36.1781 52.9352 33.8791 50.4005 29.7596 51.5705C25.6402 52.7405 20.1708 49.7111 20.1708 49.7111L28.6053 38.1123C28.6053 38.1123 30.0426 36.1626 29.3716 33.9199C28.7006 31.6772 28.6053 28.6558 28.6053 28.6558C28.6053 28.6558 28.8883 26.3158 33.1994 27.8751Z" fill="url(#paint11_linear)"/>
</g>
<path d="M33.1994 27.6805C33.1994 27.6805 37.8936 24.3651 40.3842 27.6805C40.3842 27.6805 40.9589 31.7755 40.3842 32.5552C40.3842 32.5552 39.9047 35.7723 40.6759 36.2599C41.4471 36.7476 42.017 38.307 42.017 38.307C42.017 38.307 44.7954 39.5743 45.1786 40.4523C45.5617 41.3303 49.5849 50.1045 49.5849 50.1045C49.5849 50.1045 44.2207 53.0295 42.3048 52.7406C40.389 52.4516 36.1781 52.7406 36.1781 52.7406C36.1781 52.7406 33.8791 50.2059 29.7596 51.3759C25.6402 52.5459 20.1796 49.5235 20.1796 49.5235L28.6053 37.9176C28.6053 37.9176 30.0426 35.9679 29.3716 33.7252C28.7006 31.4825 28.6053 28.4602 28.6053 28.4602C28.6053 28.4602 28.8883 26.1201 33.1994 27.6805Z" fill="url(#paint12_linear)"/>
<path opacity="0.1" d="M35.547 19.9192C35.547 19.9192 38.6288 19.6586 39.4 20.7141L35.547 19.9192Z" fill="url(#paint13_linear)"/>
<path opacity="0.1" d="M27.5219 24.4381C27.5219 24.4381 29.7587 22.2644 31.0054 22.5918L27.5219 24.4381Z" fill="url(#paint14_linear)"/>
<g opacity="0.1">
<path opacity="0.1" d="M29.6546 16.76C29.6546 16.76 29.8491 17.2527 30.0883 17.9411C30.7502 18.4725 31.5549 18.7747 32.3898 18.8052C33.2246 18.8358 34.0477 18.5932 34.7437 18.1115C34.7201 17.465 34.7481 16.8176 34.8273 16.176L29.6546 16.76Z" fill="url(#paint15_linear)"/>
</g>
<path d="M32.2414 18.808C34.4108 18.808 36.1694 17.0182 36.1694 14.8103C36.1694 12.6024 34.4108 10.8126 32.2414 10.8126C30.0721 10.8126 28.3135 12.6024 28.3135 14.8103C28.3135 17.0182 30.0721 18.808 32.2414 18.808Z" fill="url(#paint16_linear)"/>
<g opacity="0.1">
<path opacity="0.1" d="M36.288 11.5639C36.0828 10.8369 35.7366 9.48541 35.0121 9.31711C34.8543 9.29236 34.6983 9.25611 34.5453 9.20862C34.2535 9.09304 34.0483 8.82031 33.8052 8.6155C33.2645 8.16129 32.3377 8.73413 31.6404 8.66113C30.986 8.59218 30.2994 8.54555 29.6955 8.80104C28.4769 9.30798 28.013 10.7933 27.1378 11.796C26.4823 12.5463 25.5906 13.0279 24.762 13.5713C23.9334 14.1148 23.1156 14.7829 22.7606 15.7187C22.5097 16.3808 22.5155 17.1138 22.5758 17.8215C22.7432 19.7657 23.2875 21.6541 24.1756 23.3725C24.4304 23.8653 24.7163 24.3519 24.8417 24.8933C24.9672 25.4348 24.9049 26.0593 24.5296 26.4649C24.0005 27.0377 23.101 26.9718 22.3901 27.276C22.9804 27.8904 23.8585 28.1611 24.7017 28.1246C25.5448 28.0881 26.3549 27.7677 27.0872 27.3398C28.9739 26.2377 30.4025 24.3996 31.1814 22.3343C31.5432 21.3742 31.7727 20.3207 31.552 19.316C31.3623 18.4542 30.8605 17.7039 30.4384 16.9324C30.0164 16.1608 29.6605 15.2899 29.7917 14.4169C29.9143 13.6312 30.4355 12.9498 31.0822 12.5017C31.6171 12.1306 32.5643 11.6247 33.2383 11.6541C33.9842 11.6845 36.4893 12.2918 36.288 11.5639Z" fill="url(#paint17_linear)"/>
</g>
<path d="M36.1907 11.4665C35.9855 10.7396 35.6393 9.38806 34.9148 9.21976C34.757 9.19501 34.601 9.15876 34.448 9.11127C34.1563 8.99569 33.9511 8.72296 33.708 8.51815C33.1673 8.06393 32.2405 8.63678 31.5432 8.56378C30.8887 8.49483 30.2021 8.44819 29.5982 8.70369C28.3797 9.21063 27.9158 10.696 27.0405 11.6987C26.3851 12.449 25.4933 12.9306 24.6647 13.474C23.8362 14.0174 23.0183 14.6856 22.6633 15.6214C22.4124 16.2835 22.4183 17.0165 22.4786 17.7242C22.646 19.6683 23.1902 21.5568 24.0783 23.2752C24.3331 23.7679 24.619 24.2546 24.7445 24.796C24.8699 25.3374 24.8077 25.962 24.4323 26.3675C23.9033 26.9404 23.0037 26.8745 22.2928 27.1786C22.8831 27.793 23.7613 28.0637 24.6044 28.0272C25.4476 27.9907 26.2577 27.6704 26.99 27.2425C28.8766 26.1404 30.3052 24.3022 31.0842 22.237C31.4459 21.2768 31.6754 20.2234 31.4547 19.2186C31.2651 18.3568 30.7633 17.6066 30.3412 16.835C29.9191 16.0634 29.5632 15.1925 29.6945 14.3196C29.817 13.5338 30.3383 12.8525 30.985 12.4044C31.5199 12.0333 32.4671 11.5273 33.141 11.5568C33.8879 11.5892 36.394 12.1975 36.1907 11.4665Z" fill="url(#paint18_linear)"/>
<path opacity="0.1" d="M40.144 36.2112C40.144 36.2112 38.3235 37.3813 36.2161 37.1866L40.144 36.2112Z" fill="url(#paint19_linear)"/>
<path opacity="0.1" d="M42.0597 38.0636C42.0597 38.0636 37.3655 39.916 35.544 39.7213L42.0597 38.0636Z" fill="url(#paint20_linear)"/>
<path opacity="0.1" d="M29.6069 33.2862C29.6069 33.2862 34.6844 33.7739 35.546 32.7985C35.546 32.7985 38.3244 33.6755 40.1439 32.7985" fill="url(#paint21_linear)"/>
<path d="M35.1998 12.164L36.2092 14.2171C36.4193 14.645 36.6332 15.083 36.675 15.5474C36.7276 16.1202 36.5146 16.692 36.5652 17.2649C36.6118 17.7911 36.8783 18.2848 37.1876 18.7401C39.1082 21.5698 42.9574 23.3269 46.7375 23.0997C45.3089 23.7446 43.6751 23.9403 42.0782 24.1258C41.3061 24.215 40.5222 24.3052 39.753 24.1917C39.0509 24.0903 38.3915 23.8196 37.772 23.5225C36.537 22.9335 35.3622 22.2045 34.519 21.2251C33.6759 20.2457 33.1916 18.9945 33.4328 17.788C33.5174 17.3652 33.6885 16.9566 33.7576 16.5318C33.8626 15.889 33.7313 15.228 33.8762 14.5913C34.0017 14.0387 34.3274 13.5338 34.4733 12.9843C34.6056 12.4875 34.1573 11.7777 34.4918 11.4036C34.8516 11.4949 35.0539 11.868 35.1998 12.164Z" fill="#252223"/>
<path d="M24.4139 45.5542L29.5963 38.1529L28.7774 29.4335L40.2753 28.444L40.2325 26.6859L42.7785 32.465L50.5079 40.3337L50.5614 40.4148L52.3342 39.4709L45.6007 30.7617L42.4177 24.9826L42.4099 24.9562C42.0237 23.6307 41.2516 22.4633 40.2005 21.6158C39.1494 20.7684 37.8714 20.2828 36.5438 20.2265C35.8631 20.1981 35.2883 20.1454 35.052 20.0531C34.3246 19.7682 34.6883 16.9243 34.6883 16.9243L29.7781 17.493C29.7781 17.493 30.2342 18.657 30.5717 19.8939C30.7531 20.5662 30.7176 21.2819 30.4707 21.9311C30.2239 22.5803 29.7793 23.127 29.2053 23.4871C27.7077 24.43 24.692 26.0613 25.0956 27.6836C25.7326 30.2436 26.4143 36.263 26.4143 36.263L23.4132 45.2693" fill="#F0898B"/>
<path d="M23.4131 45.2662C23.4131 45.2662 19.3208 49.343 21.049 49.343C22.7771 49.343 24.4138 45.5542 24.4138 45.5542" fill="#FDB797"/>
<path d="M52.4197 39.5784L52.3341 39.4709L50.5623 40.4189C50.9124 40.942 52.8962 43.8103 54.0545 43.4656C55.3294 43.0864 52.4197 39.5784 52.4197 39.5784Z" fill="#FDB797"/>
<path d="M38.8709 67.7338C38.8709 67.7338 39.7802 72.569 38.4158 73.7066C37.0514 74.8442 36.2335 74.5603 36.2335 74.5603V68.0187L38.8709 67.7338Z" fill="#333333"/>
<path d="M21.72 48.3931C21.72 48.3931 20.0473 50.4806 20.6853 50.9541C21.3232 51.4276 22.7771 51.1437 22.8675 52.187C22.958 53.2303 26.141 52.9454 26.141 52.9454C26.141 52.9454 29.5962 55.2205 32.506 54.6517C35.4157 54.083 40.7809 53.3246 40.7809 53.3246L43.6906 53.2293C43.6906 53.2293 46.0548 51.9964 46.5109 52.186C46.967 52.3756 48.6931 50.7666 48.0571 49.6259C47.4211 48.4853 21.72 48.3931 21.72 48.3931Z" fill="#F0898B"/>
<path opacity="0.2" d="M21.72 48.3931C21.72 48.3931 20.0473 50.4806 20.6853 50.9541C21.3232 51.4276 22.7771 51.1437 22.8675 52.187C22.958 53.2303 26.141 52.9454 26.141 52.9454C26.141 52.9454 29.5962 55.2205 32.506 54.6517C35.4157 54.083 40.7809 53.3246 40.7809 53.3246L43.6906 53.2293C43.6906 53.2293 46.0548 51.9964 46.5109 52.186C46.967 52.3756 48.6931 50.7666 48.0571 49.6259C47.4211 48.4853 21.72 48.3931 21.72 48.3931Z" fill="black"/>
<path d="M41.4169 51.5229L40.1439 60.154C40.1439 60.154 41.1446 62.4292 39.1432 65.8419L38.7795 67.7378L36.324 68.0227L35.4128 48.8685L41.4169 51.5229Z" fill="#FDB797"/>
<path opacity="0.1" d="M29.8695 50.291L32.4155 57.1124C32.4155 57.1124 32.8706 59.9563 32.6888 60.5251C32.5069 61.0939 32.2337 66.5922 33.2344 68.2985C34.2351 70.0049 35.5985 76.4511 35.5985 76.4511L38.3302 76.1733C38.3302 76.1733 37.3295 74.3717 37.3295 73.2331V67.8291C37.3295 67.8291 37.3295 64.1315 36.6926 61.4771L36.9357 59.7018C37.0153 59.12 36.9996 58.5282 36.889 57.9519L35.2358 49.343L29.8695 50.291Z" fill="black"/>
<path d="M29.6877 50.291L32.2337 57.1124C32.2337 57.1124 32.6888 59.9563 32.5069 60.5251C32.3251 61.0939 32.0518 66.5922 33.0525 68.2985C34.0532 70.0049 35.4128 76.4552 35.4128 76.4552L38.1435 76.1733C38.1435 76.1733 37.1428 74.3717 37.1428 73.2331V67.8291C37.1428 67.8291 37.1428 64.1315 36.5058 61.4771L36.749 59.7018C36.8286 59.12 36.8129 58.5282 36.7023 57.9519L35.0491 49.343L29.6877 50.291Z" fill="#FDB797"/>
<path d="M35.4127 76.4552C35.4127 76.4552 35.9583 78.1615 35.4127 78.636C34.8672 79.1105 35.049 82.2384 35.049 82.2384C35.049 82.2384 38.4138 83.6578 38.868 81.3847C38.868 81.3847 37.9587 77.1183 38.1406 76.1703L35.4127 76.4552Z" fill="#333333"/>
<path opacity="0.1" d="M33.4153 28.2969C33.4153 28.2969 37.8712 25.0738 40.2354 28.2969C40.2354 28.2969 40.781 32.2784 40.2354 33.0368C40.2354 33.0368 39.7803 36.1657 40.5087 36.6391C41.2371 37.1126 41.7816 38.6304 41.7816 38.6304C41.7816 38.6304 44.4191 39.8633 44.7828 40.716C45.1465 41.5686 48.9645 50.1014 48.9645 50.1014C48.9645 50.1014 43.8735 52.9454 42.0539 52.6605C40.2344 52.3756 36.2345 52.6605 36.2345 52.6605C36.2345 52.6605 34.0513 50.1957 30.1418 51.3333C26.2324 52.4709 21.049 49.5316 21.049 49.5316L29.0507 38.2543C29.0507 38.2543 30.4122 36.3583 29.7781 34.1774C29.1441 31.9966 29.0507 29.0584 29.0507 29.0584C29.0507 29.0584 29.324 26.7802 33.4153 28.2969Z" fill="black"/>
<path d="M33.4153 28.1073C33.4153 28.1073 37.8712 24.8842 40.2354 28.1073C40.2354 28.1073 40.7809 32.0888 40.2354 32.8472C40.2354 32.8472 39.7802 35.976 40.5086 36.4495C41.237 36.923 41.7816 38.4408 41.7816 38.4408C41.7816 38.4408 44.4181 39.6736 44.7818 40.5263C45.1455 41.379 48.9635 49.9118 48.9635 49.9118C48.9635 49.9118 43.8735 52.7527 42.0539 52.4708C40.2344 52.189 36.2345 52.4708 36.2345 52.4708C36.2345 52.4708 34.0513 50.0061 30.1418 51.1437C26.2324 52.2812 21.049 49.342 21.049 49.342L29.0507 38.0616C29.0507 38.0616 30.4122 36.1656 29.7781 33.9848C29.1441 31.8039 29.0507 28.8657 29.0507 28.8657C29.0507 28.8657 29.324 26.5946 33.4153 28.1073Z" fill="#F0898B"/>
<path opacity="0.1" d="M35.6442 20.561C35.6442 20.561 38.5695 20.3075 39.2988 21.3315L35.6442 20.561Z" fill="#72351C"/>
<path opacity="0.1" d="M28.0267 24.9542C28.0267 24.9542 30.1486 22.8403 31.3331 23.1596L28.0267 24.9542Z" fill="#72351C"/>
<path opacity="0.1" d="M30.0514 17.49C30.0514 17.49 30.2391 17.9685 30.4628 18.6377C31.0859 19.1536 31.851 19.448 32.6462 19.4777C33.4414 19.5074 34.2248 19.271 34.8818 18.8029C34.8595 18.1741 34.8861 17.5445 34.9615 16.9202L30.0514 17.49Z" fill="#72351C"/>
<path d="M32.5059 19.4812C34.5652 19.4812 36.2345 17.7409 36.2345 15.594C36.2345 13.4472 34.5652 11.7068 32.5059 11.7068C30.4467 11.7068 28.7774 13.4472 28.7774 15.594C28.7774 17.7409 30.4467 19.4812 32.5059 19.4812Z" fill="#FDB797"/>
<path opacity="0.1" d="M36.3444 12.4368C36.1499 11.7271 35.8212 10.4161 35.1327 10.2519C34.9828 10.2292 34.8346 10.1953 34.6892 10.1505C34.4092 10.038 34.2176 9.77233 33.9861 9.57361C33.4736 9.13257 32.5925 9.68919 31.9313 9.61822C31.3098 9.55131 30.6583 9.50568 30.0835 9.75408C28.9272 10.2519 28.4867 11.6906 27.6523 12.6659C27.0308 13.3959 26.1838 13.8633 25.3971 14.3895C24.6103 14.9157 23.8401 15.5667 23.4987 16.4771C23.2605 17.1209 23.2663 17.8337 23.3227 18.5221C23.4807 20.4083 23.9971 22.2429 24.8418 23.919C25.0839 24.3986 25.3543 24.871 25.4739 25.3983C25.5935 25.9255 25.5332 26.5318 25.1821 26.9262C24.6803 27.4828 23.8265 27.4209 23.1477 27.7109C23.7078 28.3081 24.5422 28.5717 25.3416 28.5362C26.141 28.5007 26.9112 28.1895 27.6066 27.7738C29.3969 26.7021 30.7536 24.9167 31.4965 22.9072C31.8398 21.9734 32.0577 20.9483 31.8486 19.973C31.6687 19.1345 31.1922 18.4055 30.7915 17.6553C30.3908 16.905 30.0485 16.0574 30.1769 15.2088C30.2926 14.4443 30.7876 13.7822 31.4012 13.3463C31.9089 12.9863 32.8084 12.4936 33.4435 12.523C34.1602 12.5534 36.5389 13.1445 36.3444 12.4368Z" fill="#72351C"/>
<path d="M36.253 12.3425C36.0585 11.6328 35.7298 10.3218 35.0413 10.1576C34.8913 10.1349 34.7431 10.101 34.5978 10.0562C34.3177 9.94367 34.1262 9.67803 33.8947 9.47931C33.3822 9.03827 32.5011 9.59489 31.8398 9.52392C31.2184 9.45701 30.5668 9.41138 29.9921 9.65978C28.8358 10.1576 28.3952 11.5963 27.5608 12.5716C26.9394 13.3016 26.0924 13.769 25.3056 14.2952C24.5189 14.8214 23.7428 15.4724 23.4073 16.3828C23.1691 17.0266 23.1749 17.7394 23.2313 18.4278C23.3893 20.314 23.9057 22.1486 24.7503 23.8247C24.9925 24.3043 25.2628 24.7767 25.3825 25.304C25.5021 25.8312 25.4418 26.4375 25.0907 26.8319C24.5889 27.3885 23.735 27.3266 23.0562 27.6166C23.6164 28.2138 24.4508 28.4774 25.2502 28.4419C26.0496 28.4064 26.8198 28.0952 27.5151 27.6795C29.3055 26.6078 30.6621 24.8224 31.4051 22.8128C31.7484 21.8791 31.9662 20.854 31.7572 19.8787C31.5772 19.0402 31.1007 18.3112 30.7001 17.5609C30.2994 16.8107 29.9571 15.9631 30.0854 15.1145C30.2012 14.35 30.6962 13.6879 31.3098 13.252C31.8175 12.892 32.717 12.3993 33.3521 12.4287C34.0698 12.4591 36.4475 13.0492 36.253 12.3425Z" fill="#252223"/>
<path opacity="0.1" d="M40.0078 36.4029C40.0078 36.4029 38.2797 37.5405 36.2792 37.3509L40.0078 36.4029Z" fill="#72351C"/>
<path opacity="0.1" d="M41.8312 38.2036C41.8312 38.2036 37.3752 40.0052 35.6481 39.8156L41.8312 38.2036Z" fill="#72351C"/>
<path opacity="0.1" d="M30.0057 33.559C30.0057 33.559 34.8254 34.0335 35.6461 33.0845C35.6461 33.0845 38.2836 33.9382 40.0107 33.0845" fill="#72351C"/>
<path opacity="0.1" d="M29.5097 37.2079L24.6103 43.7647L24.4138 44.7887L29.5097 37.2079Z" fill="#72351C"/>
<path opacity="0.2" d="M84.8 11.6561L81.5596 10.5013C81.5015 10.4806 81.4401 10.472 81.3788 10.4761C81.3175 10.4802 81.2576 10.4968 81.2025 10.5251C81.1473 10.5533 81.0981 10.5926 81.0576 10.6407C81.0171 10.6889 80.9861 10.7448 80.9664 10.8055L79.8558 14.1827C79.8359 14.2433 79.8277 14.3074 79.8316 14.3713C79.8355 14.4352 79.8515 14.4976 79.8786 14.5551C79.9057 14.6125 79.9434 14.6638 79.9895 14.7061C80.0357 14.7483 80.0894 14.7806 80.1476 14.8012L83.3879 15.956C83.446 15.9767 83.5075 15.9853 83.5687 15.9812C83.63 15.9772 83.6899 15.9605 83.7451 15.9323C83.8002 15.904 83.8494 15.8647 83.8899 15.8166C83.9304 15.7684 83.9614 15.7125 83.9811 15.6518L85.0888 12.2736C85.1288 12.1518 85.1208 12.0184 85.0667 11.9027C85.0126 11.7869 84.9167 11.6983 84.8 11.6561ZM83.8498 13.0198C83.843 13.0472 83.8333 13.0756 83.8245 13.1019C83.5513 13.9343 82.6303 14.6765 81.5197 14.2811C81.1914 14.1659 80.9018 13.9547 80.6853 13.6727C80.7319 13.6955 80.7796 13.7155 80.8283 13.7326C81.0995 13.8305 81.3944 13.8305 81.6656 13.7326C81.5404 13.6852 81.4326 13.5984 81.3571 13.484C81.2816 13.3697 81.2422 13.2336 81.2445 13.0948C81.3298 13.1432 81.4239 13.1722 81.5207 13.18C81.3936 13.1024 81.2962 12.9813 81.245 12.8374C81.1937 12.6934 81.1919 12.5354 81.2397 12.3902V12.3821C81.3071 12.4603 81.3915 12.5208 81.4857 12.5585C81.4218 12.4716 81.3794 12.3696 81.3624 12.2615C81.3455 12.1534 81.3544 12.0426 81.3885 11.939C81.4243 11.827 81.4885 11.7272 81.5742 11.65C81.662 11.8987 81.7989 12.1253 81.9762 12.3152C82.1534 12.5051 82.367 12.6539 82.6031 12.7521C82.6178 12.6064 82.6781 12.4698 82.7748 12.3635C82.8714 12.2571 82.999 12.187 83.1378 12.1639C83.2766 12.1408 83.4188 12.166 83.5424 12.2357C83.666 12.3054 83.7642 12.4156 83.8216 12.5494C83.9656 12.5706 84.1121 12.5654 84.2544 12.5341C84.1619 12.6635 84.0274 12.7532 83.8761 12.7866C84.0008 12.8153 84.129 12.8242 84.2563 12.813C84.1333 12.9053 83.9962 12.9752 83.8508 13.0198H83.8498Z" fill="black"/>
<path opacity="0.2" d="M72.7624 22.5117L72.8043 26.0816C72.805 26.1455 72.7937 26.2089 72.771 26.2683C72.7482 26.3276 72.7145 26.3817 72.6717 26.4275C72.6289 26.4733 72.5778 26.5098 72.5215 26.535C72.4651 26.5602 72.4046 26.5735 72.3433 26.5743L71.5137 26.5845L71.4924 24.7879L72.0817 24.7808L72.1585 24.0944L71.4846 24.1025L71.4797 23.6645C71.4797 23.4617 71.5283 23.3299 71.8016 23.3269H72.1498L72.143 22.7185C71.9742 22.7019 71.8048 22.6948 71.6353 22.6972C71.1335 22.7033 70.7931 23.0278 70.7999 23.6097L70.8058 24.1167L70.2145 24.1238L70.2223 24.8092L70.8145 24.8021L70.8359 26.5976L68.9211 26.622C68.8598 26.6228 68.7989 26.611 68.742 26.5873C68.6851 26.5636 68.6332 26.5284 68.5893 26.4838C68.5454 26.4391 68.5104 26.3859 68.4862 26.3272C68.462 26.2684 68.4492 26.2053 68.4484 26.1414L68.4066 22.5715C68.4059 22.5076 68.4172 22.4442 68.4399 22.3848C68.4627 22.3255 68.4964 22.2714 68.5392 22.2256C68.582 22.1799 68.633 22.1433 68.6894 22.1181C68.7457 22.093 68.8063 22.0796 68.8676 22.0788L72.2898 22.0321C72.4134 22.0305 72.5326 22.0801 72.6213 22.17C72.7099 22.2599 72.7606 22.3828 72.7624 22.5117Z" fill="black"/>
<path opacity="0.2" d="M77.407 32.908L78.4768 36.2174C78.4965 36.2772 78.5046 36.3406 78.5006 36.4038C78.4966 36.467 78.4805 36.5287 78.4533 36.5853C78.4262 36.642 78.3885 36.6924 78.3424 36.7337C78.2963 36.7749 78.2428 36.8062 78.185 36.8257L75.9707 37.6033C76.0193 37.3926 76.0418 37.1762 76.0378 36.9595C76.03 36.8419 75.9979 36.3623 75.9979 36.3623C76.1165 36.481 76.3665 36.5276 76.5911 36.4495C77.2592 36.2153 77.5335 35.4062 77.2719 34.6103C77.0258 33.8479 76.2439 33.487 75.4757 33.7567C74.5197 34.0923 74.2289 34.9388 74.4643 35.6678C74.5732 36.0065 74.8824 36.3664 75.2024 36.4039C75.251 36.41 75.2705 36.3928 75.2666 36.3471C75.2627 36.3015 75.251 36.1444 75.2432 36.0643C75.2427 36.0516 75.2391 36.0394 75.2326 36.0287C75.2261 36.018 75.217 36.0093 75.2063 36.0034C75.05 35.8879 74.9326 35.724 74.8708 35.535C74.8266 35.3997 74.8094 35.2564 74.82 35.1139C74.8306 34.9714 74.8689 34.8326 74.9326 34.706C74.9963 34.5794 75.084 34.4676 75.1904 34.3774C75.2968 34.2873 75.4196 34.2206 75.5515 34.1815C76.0951 33.9909 76.6018 34.2433 76.7798 34.7959C76.9811 35.4204 76.8196 35.9588 76.4248 36.0967C76.3752 36.1171 76.3218 36.125 76.2687 36.1198C76.2157 36.1146 76.1646 36.0964 76.1195 36.0668C76.0744 36.0372 76.0367 35.9969 76.0093 35.9493C75.9819 35.9016 75.9657 35.8479 75.9619 35.7925C75.9356 35.4965 75.9619 35.1578 75.8967 34.9591C75.7353 34.4613 75.0769 34.7685 75.2919 35.4336C75.3287 35.5522 75.389 35.6613 75.4689 35.754C75.5894 37.1015 75.5515 37.1329 75.7869 37.6581H75.8092L75.0098 37.9389C74.9524 37.9595 74.8916 37.9679 74.831 37.9637C74.7704 37.9596 74.7112 37.9428 74.6569 37.9145C74.6025 37.8862 74.5542 37.8468 74.5146 37.7988C74.475 37.7508 74.445 37.695 74.4263 37.6348L73.3566 34.3254C73.3368 34.2656 73.3288 34.2022 73.3328 34.139C73.3368 34.0758 73.3529 34.0141 73.38 33.9575C73.4072 33.9008 73.4449 33.8504 73.491 33.8091C73.537 33.7679 73.5905 33.7366 73.6483 33.7171L76.8226 32.6019C76.8802 32.5812 76.9412 32.5727 77.002 32.5769C77.0628 32.5812 77.1222 32.5981 77.1767 32.6266C77.2311 32.6551 77.2796 32.6947 77.3191 32.7431C77.3587 32.7914 77.3886 32.8475 77.407 32.908Z" fill="black"/>
<path opacity="0.2" d="M82.853 25.1346C82.773 25.3812 82.7649 25.6469 82.8296 25.8983C82.8942 26.1497 83.0289 26.3755 83.2164 26.5472C83.404 26.7189 83.6362 26.8289 83.8836 26.8633C84.1311 26.8977 84.3828 26.8549 84.607 26.7404C84.8311 26.6259 85.0178 26.4447 85.1433 26.2197C85.2689 25.9948 85.3278 25.7361 85.3125 25.4763C85.2973 25.2165 85.2086 24.9673 85.0577 24.76C84.9067 24.5526 84.7003 24.3966 84.4644 24.3114C84.3068 24.2544 84.1399 24.2306 83.9734 24.2412C83.8069 24.2518 83.6441 24.2967 83.4943 24.3732C83.3445 24.4498 83.2107 24.5564 83.1007 24.6871C82.9906 24.8178 82.9064 24.9699 82.853 25.1346ZM84.834 25.8444C84.7812 26.0052 84.6838 26.1462 84.5542 26.2493C84.4245 26.3525 84.2684 26.4133 84.1057 26.424C83.9429 26.4347 83.7807 26.3949 83.6397 26.3095C83.4986 26.2241 83.385 26.0971 83.3132 25.9444C83.2415 25.7917 83.2147 25.6203 83.2363 25.4518C83.258 25.2833 83.3271 25.1252 83.4349 24.9976C83.5427 24.87 83.6844 24.7786 83.842 24.735C83.9997 24.6913 84.1662 24.6974 84.3205 24.7524C84.5272 24.8266 84.6973 24.9832 84.7935 25.1879C84.8897 25.3925 84.9043 25.6286 84.834 25.8444ZM83.3276 23.5226C83.3815 23.5429 83.4285 23.5793 83.4627 23.6272C83.4969 23.6752 83.5168 23.7326 83.5199 23.7923C83.523 23.8519 83.5091 23.9112 83.4801 23.9628C83.451 24.0143 83.4081 24.0558 83.3566 24.082C83.3051 24.1082 83.2473 24.118 83.1904 24.1102C83.1336 24.1024 83.0802 24.0773 83.037 24.0381C82.9938 23.9989 82.9626 23.9472 82.9473 23.8896C82.932 23.832 82.9334 23.771 82.9512 23.7142C82.9634 23.6755 82.9828 23.6397 83.0085 23.609C83.0341 23.5783 83.0654 23.5532 83.1005 23.5354C83.1356 23.5175 83.1738 23.5071 83.2128 23.5049C83.2518 23.5028 83.2908 23.5087 83.3276 23.5226ZM83.8838 22.7946C83.5026 22.679 83.1409 22.6496 82.7732 22.8392C82.4056 23.0288 82.2063 23.3462 82.0594 23.7274C81.9126 24.1086 81.508 25.3303 81.3981 25.742C81.2882 26.1536 81.26 26.5155 81.4399 26.8998C81.6199 27.2841 81.9262 27.4909 82.2919 27.644C82.6575 27.7971 83.8294 28.2189 84.2242 28.3334C84.6191 28.448 84.9672 28.4784 85.3348 28.2888C85.7024 28.0992 85.9018 27.7819 86.0486 27.4007C86.1955 27.0194 86.6 25.7977 86.7099 25.3861C86.8198 24.9744 86.849 24.6115 86.6671 24.2282C86.4853 23.845 86.1809 23.6371 85.8152 23.484C85.4496 23.3309 84.2787 22.9102 83.8838 22.7946ZM86.0584 24.1522C86.1453 24.2296 86.216 24.3248 86.2662 24.4319C86.3163 24.539 86.3449 24.6557 86.3501 24.7747C86.3666 25.1397 86.0885 25.89 85.9718 26.2479C85.8551 26.6058 85.6314 27.3763 85.4048 27.6531C85.3306 27.7437 85.2392 27.8175 85.1365 27.8698C85.0338 27.9221 84.9219 27.9519 84.8077 27.9573C84.4576 27.9745 83.738 27.6846 83.3947 27.5629C83.0514 27.4412 82.3123 27.208 82.0468 26.9718C81.9599 26.8944 81.8892 26.7992 81.839 26.6921C81.7888 26.585 81.7602 26.4683 81.755 26.3493C81.7385 25.9843 82.0166 25.234 82.1333 24.8761C82.25 24.5182 82.4737 23.7477 82.7003 23.4709C82.7746 23.3803 82.8659 23.3065 82.9686 23.2542C83.0713 23.2019 83.1832 23.1721 83.2974 23.1667C83.6475 23.1495 84.3672 23.4394 84.7105 23.5611C85.0538 23.6828 85.7938 23.916 86.0593 24.1532L86.0584 24.1522Z" fill="black"/>
<path opacity="0.2" d="M60.9787 32.9182L62.0368 33.2325L61.2364 34.0193L60.9787 32.9182ZM63.2368 31.0283L64.0751 34.6043C64.1045 34.7338 64.0839 34.8702 64.0177 34.9841C63.9515 35.0979 63.8449 35.18 63.7211 35.2126L60.2863 36.0866C60.162 36.1172 60.0312 36.0957 59.922 36.0267C59.8128 35.9576 59.7341 35.8466 59.7028 35.7175L58.8645 32.1365C58.8351 32.0069 58.8557 31.8705 58.9219 31.7567C58.9882 31.6429 59.0947 31.5608 59.2185 31.5281L62.6533 30.6542C62.7783 30.6237 62.9097 30.6459 63.019 30.7159C63.1283 30.786 63.2066 30.8983 63.2368 31.0283ZM63.2466 32.9263C63.2466 32.9263 63.1046 32.318 62.9626 32.0483C62.9243 31.9749 62.8683 31.9132 62.8 31.8694C62.7318 31.8256 62.6537 31.8013 62.5736 31.7989C62.2818 31.7907 61.1674 32.0736 61.1674 32.0736C61.1674 32.0736 60.0558 32.3565 59.7981 32.5045C59.728 32.5446 59.6693 32.6032 59.6276 32.6743C59.586 32.7455 59.563 32.8268 59.5608 32.9101C59.554 33.2142 59.6969 33.8226 59.6969 33.8226C59.6969 33.8226 59.8389 34.4309 59.9809 34.7006C60.0193 34.7735 60.0755 34.8344 60.1439 34.8774C60.2122 34.9203 60.2902 34.9436 60.3699 34.9449C60.6617 34.952 61.7752 34.6692 61.7752 34.6692C61.7752 34.6692 62.8867 34.3863 63.1444 34.2383C63.2151 34.1987 63.2743 34.1404 63.3162 34.0691C63.3581 33.9978 63.381 33.9162 63.3827 33.8327C63.3895 33.5285 63.2475 32.9202 63.2475 32.9202L63.2466 32.9263Z" fill="black"/>
</g>
<defs>
<linearGradient id="paint0_linear" x1="40.1926" y1="23.7051" x2="40.1926" y2="10.4983" gradientUnits="userSpaceOnUse">
<stop stop-color="#808080" stop-opacity="0.25"/>
<stop offset="0.54" stop-color="#808080" stop-opacity="0.12"/>
<stop offset="1" stop-color="#808080" stop-opacity="0.1"/>
</linearGradient>
<linearGradient id="paint1_linear" x1="15243.3" y1="14345.2" x2="15243.3" y2="5794.29" gradientUnits="userSpaceOnUse">
<stop stop-color="#808080" stop-opacity="0.25"/>
<stop offset="0.54" stop-color="#808080" stop-opacity="0.12"/>
<stop offset="1" stop-color="#808080" stop-opacity="0.1"/>
</linearGradient>
<linearGradient id="paint2_linear" x1="1350.2" y1="2246.8" x2="1350.2" y2="2073.45" gradientUnits="userSpaceOnUse">
<stop stop-color="#808080" stop-opacity="0.25"/>
<stop offset="0.54" stop-color="#808080" stop-opacity="0.12"/>
<stop offset="1" stop-color="#808080" stop-opacity="0.1"/>
</linearGradient>
<linearGradient id="paint3_linear" x1="2694.56" y1="1966.66" x2="2694.56" y2="1797.75" gradientUnits="userSpaceOnUse">
<stop stop-color="#808080" stop-opacity="0.25"/>
<stop offset="0.54" stop-color="#808080" stop-opacity="0.12"/>
<stop offset="1" stop-color="#808080" stop-opacity="0.1"/>
</linearGradient>
<linearGradient id="paint4_linear" x1="1574.52" y1="5578.09" x2="1574.52" y2="5087.58" gradientUnits="userSpaceOnUse">
<stop stop-color="#808080" stop-opacity="0.25"/>
<stop offset="0.54" stop-color="#808080" stop-opacity="0.12"/>
<stop offset="1" stop-color="#808080" stop-opacity="0.1"/>
</linearGradient>
<linearGradient id="paint5_linear" x1="13466.6" y1="3835.23" x2="13466.6" y2="3414.9" gradientUnits="userSpaceOnUse">
<stop stop-color="#808080" stop-opacity="0.25"/>
<stop offset="0.54" stop-color="#808080" stop-opacity="0.12"/>
<stop offset="1" stop-color="#808080" stop-opacity="0.1"/>
</linearGradient>
<linearGradient id="paint6_linear" x1="13466.6" y1="3835.23" x2="13466.6" y2="3414.9" gradientUnits="userSpaceOnUse">
<stop stop-color="#808080" stop-opacity="0.25"/>
<stop offset="0.54" stop-color="#808080" stop-opacity="0.12"/>
<stop offset="1" stop-color="#808080" stop-opacity="0.1"/>
</linearGradient>
<linearGradient id="paint7_linear" x1="3230.67" y1="14121.8" x2="3230.67" y2="10296.1" gradientUnits="userSpaceOnUse">
<stop stop-color="#808080" stop-opacity="0.25"/>
<stop offset="0.54" stop-color="#808080" stop-opacity="0.12"/>
<stop offset="1" stop-color="#808080" stop-opacity="0.1"/>
</linearGradient>
<linearGradient id="paint8_linear" x1="4117.19" y1="22363.6" x2="4117.19" y2="14693.7" gradientUnits="userSpaceOnUse">
<stop stop-color="#808080" stop-opacity="0.25"/>
<stop offset="0.54" stop-color="#808080" stop-opacity="0.12"/>
<stop offset="1" stop-color="#808080" stop-opacity="0.1"/>
</linearGradient>
<linearGradient id="paint9_linear" x1="4099.45" y1="22363.6" x2="4099.45" y2="14693.7" gradientUnits="userSpaceOnUse">
<stop stop-color="#808080" stop-opacity="0.25"/>
<stop offset="0.54" stop-color="#808080" stop-opacity="0.12"/>
<stop offset="1" stop-color="#808080" stop-opacity="0.1"/>
</linearGradient>
<linearGradient id="paint10_linear" x1="2019.77" y1="5852.84" x2="2019.77" y2="5411.26" gradientUnits="userSpaceOnUse">
<stop stop-color="#808080" stop-opacity="0.25"/>
<stop offset="0.54" stop-color="#808080" stop-opacity="0.12"/>
<stop offset="1" stop-color="#808080" stop-opacity="0.1"/>
</linearGradient>
<linearGradient id="paint11_linear" x1="13800.1" y1="14869.1" x2="13800.1" y2="7915.49" gradientUnits="userSpaceOnUse">
<stop stop-color="#808080" stop-opacity="0.25"/>
<stop offset="0.54" stop-color="#808080" stop-opacity="0.12"/>
<stop offset="1" stop-color="#808080" stop-opacity="0.1"/>
</linearGradient>
<linearGradient id="paint12_linear" x1="13796" y1="14817.9" x2="13796" y2="7864.32" gradientUnits="userSpaceOnUse">
<stop stop-color="#808080" stop-opacity="0.25"/>
<stop offset="0.54" stop-color="#808080" stop-opacity="0.12"/>
<stop offset="1" stop-color="#808080" stop-opacity="0.1"/>
</linearGradient>
<linearGradient id="paint13_linear" x1="1943.45" y1="218.295" x2="1943.45" y2="211.634" gradientUnits="userSpaceOnUse">
<stop stop-color="#808080" stop-opacity="0.25"/>
<stop offset="0.54" stop-color="#808080" stop-opacity="0.12"/>
<stop offset="1" stop-color="#808080" stop-opacity="0.1"/>
</linearGradient>
<linearGradient id="paint14_linear" x1="1458.43" y1="544.659" x2="1458.43" y2="509.806" gradientUnits="userSpaceOnUse">
<stop stop-color="#808080" stop-opacity="0.25"/>
<stop offset="0.54" stop-color="#808080" stop-opacity="0.12"/>
<stop offset="1" stop-color="#808080" stop-opacity="0.1"/>
</linearGradient>
<linearGradient id="paint15_linear" x1="2312.83" y1="600.972" x2="2312.83" y2="532.649" gradientUnits="userSpaceOnUse">
<stop stop-color="#808080" stop-opacity="0.25"/>
<stop offset="0.54" stop-color="#808080" stop-opacity="0.12"/>
<stop offset="1" stop-color="#808080" stop-opacity="0.1"/>
</linearGradient>
<linearGradient id="paint16_linear" x1="2608.08" y1="1493.57" x2="2608.08" y2="863.128" gradientUnits="userSpaceOnUse">
<stop stop-color="#808080" stop-opacity="0.25"/>
<stop offset="0.54" stop-color="#808080" stop-opacity="0.12"/>
<stop offset="1" stop-color="#808080" stop-opacity="0.1"/>
</linearGradient>
<linearGradient id="paint17_linear" x1="5746.39" y1="6192.41" x2="5746.39" y2="2369.76" gradientUnits="userSpaceOnUse">
<stop stop-color="#808080" stop-opacity="0.25"/>
<stop offset="0.54" stop-color="#808080" stop-opacity="0.12"/>
<stop offset="1" stop-color="#808080" stop-opacity="0.1"/>
</linearGradient>
<linearGradient id="paint18_linear" x1="5732.75" y1="6173.42" x2="5732.75" y2="2350.76" gradientUnits="userSpaceOnUse">
<stop stop-color="#808080" stop-opacity="0.25"/>
<stop offset="0.54" stop-color="#808080" stop-opacity="0.12"/>
<stop offset="1" stop-color="#808080" stop-opacity="0.1"/>
</linearGradient>
<linearGradient id="paint19_linear" x1="2009.83" y1="438.762" x2="2009.83" y2="428.96" gradientUnits="userSpaceOnUse">
<stop stop-color="#808080" stop-opacity="0.25"/>
<stop offset="0.54" stop-color="#808080" stop-opacity="0.12"/>
<stop offset="1" stop-color="#808080" stop-opacity="0.1"/>
</linearGradient>
<linearGradient id="paint20_linear" x1="3351.13" y1="754.716" x2="3351.13" y2="727.144" gradientUnits="userSpaceOnUse">
<stop stop-color="#808080" stop-opacity="0.25"/>
<stop offset="0.54" stop-color="#808080" stop-opacity="0.12"/>
<stop offset="1" stop-color="#808080" stop-opacity="0.1"/>
</linearGradient>
<linearGradient id="paint21_linear" x1="4965.98" y1="256.033" x2="4965.98" y2="252.369" gradientUnits="userSpaceOnUse">
<stop stop-color="#808080" stop-opacity="0.25"/>
<stop offset="0.54" stop-color="#808080" stop-opacity="0.12"/>
<stop offset="1" stop-color="#808080" stop-opacity="0.1"/>
</linearGradient>
<clipPath id="clip0">
<rect width="94.7211" height="83.7972" fill="white" transform="translate(0.305664 0.00561523)"/>
</clipPath>
</defs>
</svg>
