<svg width="132" height="86" viewBox="0 0 132 86" fill="none" xmlns="http://www.w3.org/2000/svg">
<g clip-path="url(#clip0)">
<path d="M48.6272 60.306C48.4765 60.3062 48.332 60.369 48.2254 60.4806C48.1188 60.5921 48.0589 60.7434 48.0587 60.9011V84.6711C48.0589 84.8289 48.1188 84.9801 48.2254 85.0917C48.332 85.2032 48.4765 85.266 48.6272 85.2662H52.4826C52.6333 85.266 52.7778 85.2032 52.8844 85.0917C52.991 84.9801 53.0509 84.8289 53.0511 84.6711V60.9011C53.0509 60.7434 52.991 60.5921 52.8844 60.4806C52.7778 60.369 52.6333 60.3062 52.4826 60.306H48.6272Z" fill="#3F3D56"/>
<path d="M80.6876 60.306C80.5369 60.3062 80.3923 60.369 80.2858 60.4805C80.1792 60.5921 80.1192 60.7433 80.119 60.9011V84.6711C80.1192 84.8289 80.1792 84.9801 80.2858 85.0917C80.3923 85.2033 80.5369 85.266 80.6876 85.2662H84.5429C84.6936 85.266 84.8381 85.2033 84.9447 85.0917C85.0513 84.9801 85.1113 84.8289 85.1115 84.6711V60.9011C85.1113 60.7433 85.0513 60.5921 84.9447 60.4805C84.8381 60.369 84.6936 60.3062 84.5429 60.306H80.6876Z" fill="#3F3D56"/>
<path d="M98.6997 41.4207L69.1391 39.0321L92.7223 43.2407L98.3737 42.217L98.6997 41.4207Z" fill="#3F3D56"/>
<path d="M92.9397 42.8662L98.5911 41.8425L98.6466 41.7069L98.9171 41.7288L98.5911 42.525L92.9397 43.5488L69.3564 39.0321L76.3453 39.9049L92.9397 42.8662Z" fill="#727272"/>
<path d="M31.7535 41.4207L2.19272 39.0321L25.7761 43.2407L31.4275 42.217L31.7535 41.4207Z" fill="#3F3D56"/>
<path d="M25.4501 42.8662L31.1013 41.8425L31.157 41.7069L31.4275 41.7288L31.1013 42.525L25.4501 43.5488L1.8667 39.0321L8.85558 39.9049L25.4501 42.8662Z" fill="#727272"/>
<path d="M103.699 53.819L101.199 53.9328L78.2996 64.0447L76.9889 65.1936L72.8341 68.8335H59.7926L55.865 65.1936L54.3717 63.8093L32.4055 54.0465L30.4493 53.819L36.9701 50.5204H37.0048C38.4829 49.0519 51.2831 47.9042 66.8568 47.9042C82.4305 47.9042 95.2307 49.0519 96.7087 50.5204H96.8522L103.699 53.819Z" fill="#3F3D56"/>
<path d="M36.791 50.6891C36.8373 50.5527 36.8611 50.409 36.8614 50.2643V44.8618C36.8614 44.5223 36.7325 44.1968 36.5032 43.9568C36.2739 43.7168 35.9629 43.5819 35.6385 43.5819H35.142C35.5497 43.1513 35.8265 42.604 35.9375 42.0091C36.0486 41.4141 35.9889 40.7981 35.766 40.2385C35.5431 39.679 35.167 39.201 34.685 38.8648C34.2031 38.5286 33.6368 38.3492 33.0576 38.3492C32.4784 38.3492 31.9122 38.5286 31.4302 38.8648C30.9482 39.201 30.5721 39.679 30.3492 40.2385C30.1264 40.7981 30.0667 41.4141 30.1777 42.0091C30.2887 42.604 30.5655 43.1513 30.9732 43.5819H30.4767C30.3161 43.5819 30.1571 43.615 30.0087 43.6794C29.8604 43.7437 29.7256 43.8379 29.612 43.9568C29.4985 44.0756 29.4084 44.2167 29.3469 44.372C29.2855 44.5273 29.2539 44.6937 29.2539 44.8618V50.2643C29.2538 50.4855 29.3088 50.7029 29.4135 50.8951C29.0444 50.9628 28.6753 51.0363 28.3062 51.1213C28.0814 51.1739 27.8805 51.3052 27.7366 51.4936C27.5927 51.6819 27.5146 51.9159 27.515 52.1571V53.4406C27.515 53.722 27.6218 53.9919 27.8119 54.1908C28.002 54.3898 28.2598 54.5015 28.5286 54.5015H40.0131V51.3167C38.9526 51.0371 37.8765 50.8275 36.791 50.6891Z" fill="#3F3D56"/>
<path d="M104.755 51.1213C104.386 51.0363 104.017 50.9628 103.648 50.895C103.753 50.7029 103.808 50.4854 103.808 50.2642V44.8617C103.808 44.6937 103.776 44.5272 103.715 44.372C103.653 44.2167 103.563 44.0756 103.45 43.9567C103.336 43.8379 103.201 43.7436 103.053 43.6793C102.904 43.615 102.745 43.5819 102.585 43.5819H102.088C102.496 43.1513 102.773 42.604 102.884 42.009C102.995 41.4141 102.935 40.798 102.712 40.2385C102.489 39.6789 102.113 39.201 101.631 38.8647C101.149 38.5285 100.583 38.3491 100.004 38.3491C99.4247 38.3491 98.8585 38.5285 98.3765 38.8647C97.8945 39.201 97.5184 39.6789 97.2955 40.2385C97.0727 40.798 97.013 41.4141 97.124 42.009C97.235 42.604 97.5118 43.1513 97.9195 43.5819H97.423C97.2624 43.5819 97.1034 43.615 96.955 43.6793C96.8067 43.7436 96.6719 43.8379 96.5583 43.9567C96.4448 44.0756 96.3547 44.2167 96.2932 44.372C96.2318 44.5272 96.2002 44.6937 96.2002 44.8617V50.2642C96.2004 50.409 96.2242 50.5526 96.2706 50.689C95.1851 50.8275 94.1089 51.0371 93.0485 51.3166V54.5015H104.533C104.802 54.5015 105.06 54.3897 105.25 54.1908C105.44 53.9918 105.547 53.722 105.547 53.4406V52.157C105.547 51.9159 105.469 51.6818 105.325 51.4935C105.181 51.3052 104.98 51.1739 104.755 51.1213Z" fill="#3F3D56"/>
<path d="M101.308 41.4207L130.869 39.0321L107.285 43.2407L101.634 42.217L101.308 41.4207Z" fill="#3F3D56"/>
<path d="M68.6063 67.8097H64.0204C63.8505 67.8097 63.6823 67.8447 63.5254 67.9127C63.3685 67.9808 63.2259 68.0805 63.1058 68.2062C62.9857 68.3319 62.8904 68.4811 62.8254 68.6454C62.7604 68.8096 62.7269 68.9857 62.7269 69.1634V70.2096C62.7271 70.4844 62.8072 70.7526 62.9566 70.9786C63.1059 71.2046 63.3175 71.3776 63.5632 71.4746C63.3736 71.7129 63.2699 72.0132 63.2703 72.3233V72.6233C63.2703 72.8372 63.3197 73.048 63.4143 73.2376C63.5089 73.4272 63.6459 73.5901 63.8137 73.7123V77.7056H68.813V73.7123C68.9807 73.5901 69.1178 73.4272 69.2124 73.2376C69.307 73.048 69.3564 72.8372 69.3563 72.6233V72.3233C69.3567 72.0132 69.2531 71.7129 69.0635 71.4747C69.3091 71.3776 69.5207 71.2046 69.6701 70.9786C69.8195 70.7526 69.8996 70.4844 69.8997 70.2096V69.1635C69.8997 68.9857 69.8663 68.8096 69.8013 68.6454C69.7363 68.4811 69.641 68.3319 69.5209 68.2062C69.4008 68.0805 69.2582 67.9808 69.1013 67.9127C68.9444 67.8447 68.7762 67.8097 68.6063 67.8097Z" fill="#3F3D56"/>
<path d="M61.653 77.1405C61.4489 77.1408 61.2531 77.2257 61.1087 77.3768C60.9644 77.5279 60.8831 77.7328 60.8829 77.9465V84.4032C60.8831 84.6169 60.9643 84.8218 61.1087 84.973C61.2531 85.1241 61.4488 85.2091 61.653 85.2094H70.9738C71.178 85.2091 71.3738 85.1241 71.5181 84.9729C71.6625 84.8218 71.7437 84.6169 71.7439 84.4032V77.9465C71.7437 77.7328 71.6624 77.528 71.5181 77.3769C71.3737 77.2258 71.178 77.1408 70.9738 77.1405H61.653Z" fill="#727272"/>
<path d="M76.9889 65.1936L72.8341 68.8335H59.7926L55.865 65.1936H59.7709L59.9415 64.303C59.9915 64.041 60.1267 63.8053 60.3241 63.6358C60.5214 63.4664 60.7687 63.3738 61.024 63.3737H71.9288C72.1841 63.3738 72.4314 63.4664 72.6287 63.6358C72.8261 63.8053 72.9613 64.041 73.0113 64.303L73.1819 65.1936H76.9889Z" fill="#2B5DDE"/>
<path d="M66.3133 84.3598C67.9939 84.3598 69.3564 82.9339 69.3564 81.1749C69.3564 79.416 67.9939 77.9901 66.3133 77.9901C64.6327 77.9901 63.2703 79.416 63.2703 81.1749C63.2703 82.9339 64.6327 84.3598 66.3133 84.3598Z" fill="#3F3D56"/>
<path d="M66.3134 82.9948C67.2737 82.9948 68.0523 82.18 68.0523 81.1749C68.0523 80.1698 67.2737 79.355 66.3134 79.355C65.353 79.355 64.5745 80.1698 64.5745 81.1749C64.5745 82.18 65.353 82.9948 66.3134 82.9948Z" fill="#E6E6E6"/>
<path d="M67.3644 79.7275C67.6195 80.0774 67.7446 80.5122 67.7165 80.9513C67.6884 81.3904 67.5091 81.8039 67.2117 82.1151C66.9144 82.4263 66.5193 82.614 66.0998 82.6434C65.6802 82.6728 65.2647 82.5419 64.9304 82.275C65.0803 82.4819 65.2709 82.6529 65.4892 82.7763C65.7076 82.8998 65.9486 82.9728 66.1962 82.9906C66.4438 83.0083 66.6921 82.9703 66.9245 82.8792C67.1569 82.7881 67.3679 82.6459 67.5434 82.4622C67.7189 82.2786 67.8547 82.0577 67.9418 81.8145C68.0288 81.5713 68.0651 81.3114 68.0482 81.0523C68.0312 80.7931 67.9614 80.5408 67.8435 80.3123C67.7255 80.0838 67.5622 79.8844 67.3644 79.7275Z" fill="white"/>
<path d="M105.601 52.478H27.5693V52.9989H105.601V52.478Z" fill="#E6E6E6"/>
<path d="M107.503 42.8662L101.851 41.8425L101.796 41.7069L101.525 41.7288L101.851 42.525L107.503 43.5488L131.086 39.0321L124.097 39.9049L107.503 42.8662Z" fill="#727272"/>
<path d="M34.3617 41.4207L63.9225 39.0321L40.339 43.2407L34.6878 42.217L34.3617 41.4207Z" fill="#3F3D56"/>
<path d="M40.6652 42.8662L35.0139 41.8425L34.9584 41.7069L34.6879 41.7288L35.0139 42.525L40.6652 43.5488L64.2485 39.0321L57.2596 39.9049L40.6652 42.8662Z" fill="#727272"/>
<path d="M70.8236 64.3405H62.1292V66.1605H70.8236V64.3405Z" fill="#E6E6E6"/>
<path d="M131.648 85.2042H0.957031V85.5484H131.648V85.2042Z" fill="#3F3D56"/>
</g>
<defs>
<clipPath id="clip0">
<rect width="130.691" height="85.0479" fill="white" transform="translate(0.957031 0.501465)"/>
</clipPath>
</defs>
</svg>
