<svg width="125" height="89" viewBox="0 0 125 89" fill="none" xmlns="http://www.w3.org/2000/svg">
<g clip-path="url(#clip0)">
<path d="M22.9914 43.8868H0.948181V44.1259H22.9914V43.8868Z" fill="#3F3D56"/>
<path d="M63.5755 43.8868H41.5323V44.1259H63.5755V43.8868Z" fill="#3F3D56"/>
<path d="M114.254 43.8868H92.2112V44.1259H114.254V43.8868Z" fill="#3F3D56"/>
<path d="M3.11129 45.3947C3.85084 45.3947 4.45036 44.7733 4.45036 44.0068C4.45036 43.2402 3.85084 42.6188 3.11129 42.6188C2.37174 42.6188 1.77222 43.2402 1.77222 44.0068C1.77222 44.7733 2.37174 45.3947 3.11129 45.3947Z" fill="#00A66C"/>
<path d="M52.554 45.3947C53.2935 45.3947 53.893 44.7733 53.893 44.0068C53.893 43.2402 53.2935 42.6188 52.554 42.6188C51.8144 42.6188 51.2149 43.2402 51.2149 44.0068C51.2149 44.7733 51.8144 45.3947 52.554 45.3947Z" fill="#00A66C"/>
<path d="M112.091 45.3947C112.831 45.3947 113.43 44.7733 113.43 44.0068C113.43 43.2402 112.831 42.6188 112.091 42.6188C111.352 42.6188 110.752 43.2402 110.752 44.0068C110.752 44.7733 111.352 45.3947 112.091 45.3947Z" fill="#00A66C"/>
<path d="M51.5948 20.5368C53.0732 25.1483 52.554 29.4783 52.554 29.4783C52.554 29.4783 49.6379 26.3314 48.1595 21.7199C46.6811 17.1084 47.2003 12.7784 47.2003 12.7784C47.2003 12.7784 50.1164 15.9253 51.5948 20.5368Z" fill="#00A66C"/>
<path d="M53.5131 20.5368C52.0348 25.1483 52.554 29.4783 52.554 29.4783C52.554 29.4783 55.4701 26.3314 56.9484 21.7199C58.4268 17.1084 57.9076 12.7784 57.9076 12.7784C57.9076 12.7784 54.9915 15.9253 53.5131 20.5368Z" fill="#00A66C"/>
<path d="M54.1086 20.5867C54.2077 25.445 52.4785 29.4231 52.4785 29.4231C52.4785 29.4231 50.5885 25.5243 50.4895 20.666C50.3904 15.8076 52.1196 11.8295 52.1196 11.8295C52.1196 11.8295 54.0095 15.7283 54.1086 20.5867Z" fill="#3F3D56"/>
<path d="M52.299 16.7686C52.5524 16.7686 52.7578 16.5557 52.7578 16.293C52.7578 16.0303 52.5524 15.8174 52.299 15.8174C52.0455 15.8174 51.8401 16.0303 51.8401 16.293C51.8401 16.5557 52.0455 16.7686 52.299 16.7686Z" fill="#FBBEBE"/>
<path d="M51.4067 20.3621C51.5475 20.3621 51.6616 20.2438 51.6616 20.0979C51.6616 19.952 51.5475 19.8337 51.4067 19.8337C51.2659 19.8337 51.1517 19.952 51.1517 20.0979C51.1517 20.2438 51.2659 20.3621 51.4067 20.3621Z" fill="#FBBEBE"/>
<path d="M48.2967 17.7462C48.4375 17.7462 48.5516 17.6279 48.5516 17.482C48.5516 17.3361 48.4375 17.2178 48.2967 17.2178C48.1559 17.2178 48.0417 17.3361 48.0417 17.482C48.0417 17.6279 48.1559 17.7462 48.2967 17.7462Z" fill="#3F3D56"/>
<path d="M57.2956 15.1832C57.4364 15.1832 57.5506 15.0649 57.5506 14.919C57.5506 14.773 57.4364 14.6547 57.2956 14.6547C57.1548 14.6547 57.0407 14.773 57.0407 14.919C57.0407 15.0649 57.1548 15.1832 57.2956 15.1832Z" fill="#3F3D56"/>
<path d="M49.6222 20.23C49.763 20.23 49.8771 20.1117 49.8771 19.9658C49.8771 19.8198 49.763 19.7015 49.6222 19.7015C49.4814 19.7015 49.3672 19.8198 49.3672 19.9658C49.3672 20.1117 49.4814 20.23 49.6222 20.23Z" fill="#3F3D56"/>
<path d="M54.9757 18.6975C55.1165 18.6975 55.2306 18.5792 55.2306 18.4332C55.2306 18.2873 55.1165 18.169 54.9757 18.169C54.8349 18.169 54.7208 18.2873 54.7208 18.4332C54.7208 18.5792 54.8349 18.6975 54.9757 18.6975Z" fill="#3F3D56"/>
<path d="M49.7752 24.1141C49.916 24.1141 50.0301 23.9958 50.0301 23.8499C50.0301 23.704 49.916 23.5857 49.7752 23.5857C49.6344 23.5857 49.5203 23.704 49.5203 23.8499C49.5203 23.9958 49.6344 24.1141 49.7752 24.1141Z" fill="#3F3D56"/>
<path d="M55.2307 22.608C55.3715 22.608 55.4856 22.4897 55.4856 22.3438C55.4856 22.1979 55.3715 22.0796 55.2307 22.0796C55.0899 22.0796 54.9758 22.1979 54.9758 22.3438C54.9758 22.4897 55.0899 22.608 55.2307 22.608Z" fill="#3F3D56"/>
<path d="M52.7579 22.8723C52.8987 22.8723 53.0128 22.754 53.0128 22.608C53.0128 22.4621 52.8987 22.3438 52.7579 22.3438C52.6171 22.3438 52.5029 22.4621 52.5029 22.608C52.5029 22.754 52.6171 22.8723 52.7579 22.8723Z" fill="#FBBEBE"/>
<path d="M54.142 32.4811L54.0834 32.2491L67.7606 28.5465L62.0699 5.96391L37.3472 12.6568L41.5648 29.3929L41.3409 29.4535L37.0651 12.4854L62.2353 5.67133L62.2646 5.78735L68.0429 28.7178L54.142 32.4811Z" fill="#3F3D56"/>
<path d="M101.9 21.0995C103.954 27.5061 103.233 33.5215 103.233 33.5215C103.233 33.5215 99.1815 29.1497 97.1277 22.7431C95.0738 16.3365 95.7952 10.321 95.7952 10.321C95.7952 10.321 99.8464 14.6928 101.9 21.0995Z" fill="#00A66C"/>
<path d="M104.565 21.0995C102.511 27.5061 103.233 33.5215 103.233 33.5215C103.233 33.5215 107.284 29.1497 109.338 22.7431C111.392 16.3365 110.67 10.321 110.67 10.321C110.67 10.321 106.619 14.6928 104.565 21.0995Z" fill="#00A66C"/>
<path d="M105.393 21.1688C105.53 27.9183 103.128 33.4449 103.128 33.4449C103.128 33.4449 100.502 28.0285 100.365 21.2789C100.227 14.5294 102.629 9.00275 102.629 9.00275C102.629 9.00275 105.255 14.4192 105.393 21.1688Z" fill="#3F3D56"/>
<path d="M102.879 15.8644C103.231 15.8644 103.516 15.5686 103.516 15.2037C103.516 14.8387 103.231 14.5429 102.879 14.5429C102.526 14.5429 102.241 14.8387 102.241 15.2037C102.241 15.5686 102.526 15.8644 102.879 15.8644Z" fill="#FBBEBE"/>
<path d="M101.639 20.8567C101.834 20.8567 101.993 20.6924 101.993 20.4896C101.993 20.2869 101.834 20.1226 101.639 20.1226C101.443 20.1226 101.285 20.2869 101.285 20.4896C101.285 20.6924 101.443 20.8567 101.639 20.8567Z" fill="#FBBEBE"/>
<path d="M97.3181 17.2226C97.5137 17.2226 97.6723 17.0583 97.6723 16.8555C97.6723 16.6528 97.5137 16.4885 97.3181 16.4885C97.1226 16.4885 96.964 16.6528 96.964 16.8555C96.964 17.0583 97.1226 17.2226 97.3181 17.2226Z" fill="#3F3D56"/>
<path d="M109.82 13.662C110.016 13.662 110.174 13.4976 110.174 13.2949C110.174 13.0921 110.016 12.9278 109.82 12.9278C109.625 12.9278 109.466 13.0921 109.466 13.2949C109.466 13.4976 109.625 13.662 109.82 13.662Z" fill="#3F3D56"/>
<path d="M99.1598 20.6732C99.3554 20.6732 99.5139 20.5088 99.5139 20.3061C99.5139 20.1034 99.3554 19.939 99.1598 19.939C98.9642 19.939 98.8056 20.1034 98.8056 20.3061C98.8056 20.5088 98.9642 20.6732 99.1598 20.6732Z" fill="#3F3D56"/>
<path d="M106.597 18.5442C106.793 18.5442 106.951 18.3798 106.951 18.1771C106.951 17.9743 106.793 17.81 106.597 17.81C106.402 17.81 106.243 17.9743 106.243 18.1771C106.243 18.3798 106.402 18.5442 106.597 18.5442Z" fill="#3F3D56"/>
<path d="M99.3723 26.0693C99.5679 26.0693 99.7265 25.905 99.7265 25.7022C99.7265 25.4995 99.5679 25.3351 99.3723 25.3351C99.1768 25.3351 99.0182 25.4995 99.0182 25.7022C99.0182 25.905 99.1768 26.0693 99.3723 26.0693Z" fill="#3F3D56"/>
<path d="M106.951 23.977C107.147 23.977 107.305 23.8126 107.305 23.6099C107.305 23.4071 107.147 23.2428 106.951 23.2428C106.756 23.2428 106.597 23.4071 106.597 23.6099C106.597 23.8126 106.756 23.977 106.951 23.977Z" fill="#3F3D56"/>
<path d="M103.516 24.344C103.712 24.344 103.87 24.1797 103.87 23.977C103.87 23.7742 103.712 23.6099 103.516 23.6099C103.32 23.6099 103.162 23.7742 103.162 23.977C103.162 24.1797 103.32 24.344 103.516 24.344Z" fill="#FBBEBE"/>
<path d="M105.428 37.648L105.369 37.4161L124.414 32.2603L116.485 0.796858L82.0517 10.1187L87.9224 33.4146L87.6985 33.4752L81.7694 9.94726L116.651 0.504395L116.68 0.620301L124.696 32.4317L105.428 37.648Z" fill="#3F3D56"/>
<path d="M11.4977 25.8563C11.9367 27.2757 12.0972 28.7719 11.9698 30.2566C10.998 29.1556 10.2611 27.8546 9.80713 26.4385C9.35316 25.0224 9.19232 23.5231 9.3351 22.0382C10.2945 23.1486 11.0298 24.4468 11.4977 25.8563Z" fill="#00A66C"/>
<path d="M12.4418 25.8563C12.0029 27.2757 11.8424 28.7719 11.9698 30.2566C12.9416 29.1556 13.6785 27.8546 14.1324 26.4385C14.5864 25.0224 14.7472 23.5231 14.6045 22.0382C13.6451 23.1486 12.9098 24.4468 12.4418 25.8563Z" fill="#00A66C"/>
<path d="M12.7348 25.8808C12.7499 27.3713 12.4771 28.8499 11.9325 30.2295C11.3177 28.8802 10.9841 27.4117 10.9537 25.9199C10.9233 24.428 11.1966 22.9462 11.7559 21.5712C12.3563 22.9257 12.6891 24.391 12.7348 25.8808Z" fill="#3F3D56"/>
<path d="M13.2003 33.2243L13.1418 32.9922L23.6573 30.1455L19.2848 12.7944L0.282171 17.9386L3.52598 30.8106L3.3021 30.8712L0 17.7672L19.4502 12.5018L23.9395 30.3169L13.2003 33.2243Z" fill="#3F3D56"/>
<path d="M106.632 12.6185C107.485 12.6185 108.177 11.9015 108.177 11.017C108.177 10.1326 107.485 9.41559 106.632 9.41559C105.779 9.41559 105.087 10.1326 105.087 11.017C105.087 11.9015 105.779 12.6185 106.632 12.6185Z" fill="#FBBEBE"/>
<path d="M99.5245 12.7252C99.9796 12.7252 100.349 12.3428 100.349 11.8711C100.349 11.3994 99.9796 11.017 99.5245 11.017C99.0694 11.017 98.7005 11.3994 98.7005 11.8711C98.7005 12.3428 99.0694 12.7252 99.5245 12.7252Z" fill="#3F3D56"/>
<path d="M11.9698 51.9752C13.1833 51.9752 14.167 50.9555 14.167 49.6978C14.167 48.44 13.1833 47.4204 11.9698 47.4204C10.7563 47.4204 9.77252 48.44 9.77252 49.6978C9.77252 50.9555 10.7563 51.9752 11.9698 51.9752Z" fill="#3F3D56"/>
<path d="M52.554 51.9752C53.7675 51.9752 54.7513 50.9555 54.7513 49.6978C54.7513 48.44 53.7675 47.4204 52.554 47.4204C51.3405 47.4204 50.3568 48.44 50.3568 49.6978C50.3568 50.9555 51.3405 51.9752 52.554 51.9752Z" fill="#3F3D56"/>
<path d="M103.233 51.9752C104.446 51.9752 105.43 50.9555 105.43 49.6978C105.43 48.44 104.446 47.4204 103.233 47.4204C102.019 47.4204 101.036 48.44 101.036 49.6978C101.036 50.9555 102.019 51.9752 103.233 51.9752Z" fill="#3F3D56"/>
<path d="M75.6102 88.0537H75.5026C69.929 88.0537 64.639 87.7665 60.6071 87.2449L60.4445 87.2228C60.3342 87.2078 60.2253 87.1927 60.1177 87.1776C59.4849 87.0911 58.8656 86.9941 58.2775 86.8893C55.3575 86.3623 53.8771 85.7342 53.8771 85.0224C53.8771 84.432 54.8481 83.9173 56.8457 83.4491C57.8067 83.224 58.9931 83.0165 60.3719 82.8322C60.6231 82.7975 60.8817 82.765 61.1462 82.7339C65.0957 82.2549 70.1943 81.9911 75.5026 81.9911C76.5518 81.9911 77.6136 82.0016 78.6584 82.0222C87.5539 82.199 97.128 83.2131 97.128 85.0224C97.128 86.103 93.6663 86.8004 90.7622 87.1953C86.7197 87.7447 81.3386 88.0496 75.6102 88.0537ZM75.5026 82.2308C70.203 82.2308 65.1139 82.4941 61.1727 82.972C60.9094 83.0031 60.6525 83.0358 60.402 83.07C59.0298 83.2533 57.8506 83.4594 56.8967 83.683C54.3801 84.2728 54.1084 84.8162 54.1084 85.0224C54.1084 85.2844 54.5185 85.9676 58.3169 86.6531C58.9018 86.7572 59.5181 86.8538 60.1486 86.9401C60.2562 86.9554 60.3648 86.9702 60.4745 86.985L60.6367 87.0072C64.6585 87.5275 69.9383 87.814 75.5026 87.814H75.6101C88.3432 87.8049 96.8967 86.3633 96.8967 85.0224C96.8967 83.8436 90.073 82.4887 78.654 82.262C77.6107 82.2412 76.5504 82.2308 75.5026 82.2308Z" fill="#3F3D56"/>
<path d="M65.0642 82.476L64.9401 82.4278C64.9128 82.4171 62.1984 81.3392 60.9268 78.895C59.6552 76.4507 60.2778 73.5078 60.2843 73.4784L60.3136 73.3444L60.4376 73.3926C60.4649 73.4032 63.1793 74.4812 64.4509 76.9254C65.7226 79.3697 65.0999 82.3126 65.0935 82.342L65.0642 82.476ZM61.1304 78.7812C62.2055 80.8478 64.3505 81.9071 64.894 82.149C64.9974 81.5452 65.3214 79.1037 64.2473 77.0391C63.1733 74.9748 61.0274 73.9138 60.4837 73.6714C60.3803 74.2755 60.0564 76.7168 61.1304 78.7812Z" fill="#3F3D56"/>
<path d="M61.8986 78.0377C64.1838 79.4627 65.0639 82.2931 65.0639 82.2931C65.0639 82.2931 62.2389 82.8131 59.9537 81.3881C57.6685 79.9632 56.7885 77.1327 56.7885 77.1327C56.7885 77.1327 59.6134 76.6127 61.8986 78.0377Z" fill="#00A66C"/>
<path d="M79.6773 31.964C79.6773 31.964 77.7641 31.6807 76.8075 35.3634C75.8509 39.0461 75.5776 39.3294 75.5776 39.3294C75.5776 39.3294 81.1806 40.1793 81.3172 39.896C81.4539 39.6127 82.5471 32.8138 79.6773 31.964Z" fill="#2F2E41"/>
<path d="M78.5841 30.5475C80.6219 30.5475 82.2739 28.8353 82.2739 26.7232C82.2739 24.611 80.6219 22.8988 78.5841 22.8988C76.5463 22.8988 74.8943 24.611 74.8943 26.7232C74.8943 28.8353 76.5463 30.5475 78.5841 30.5475Z" fill="#FFB8B8"/>
<path d="M76.9442 29.8393C76.9442 29.8393 78.1741 33.0971 77.7642 33.522C77.3542 33.947 82.8205 34.5135 82.8205 34.5135C82.8205 34.5135 83.2305 32.3889 81.5906 31.1141C81.5906 31.1141 80.9073 28.9895 81.044 28.5645C81.1806 28.1396 76.9442 29.8393 76.9442 29.8393Z" fill="#FFB8B8"/>
<path d="M80.2239 31.2558C78.8231 31.8041 77.5612 32.676 76.5342 33.8054C74.8943 35.6467 74.0743 36.2133 74.0743 36.2133C74.0743 36.2133 72.1611 36.9215 72.8444 40.3209C73.1861 42.0206 72.9469 43.9328 72.6223 45.4201C72.1266 47.7281 71.8802 50.0861 71.8878 52.4507V53.9186C71.8878 53.9186 59.3152 81.2557 63.5517 83.0971C67.7881 84.9384 71.6145 85.505 71.8878 85.0801C72.1611 84.6551 77.0808 62.5589 77.0808 62.5589C77.0808 62.5589 78.4474 86.2132 81.8638 86.2132C85.2803 86.2132 90.8833 85.2217 90.8833 85.2217L83.9137 56.8931C83.9137 56.8931 85.5536 52.0773 81.4539 48.6779L80.9072 47.1198C83.1744 47.121 84.2107 32.2485 81.8638 30.9725C81.8638 30.9725 81.3172 30.5476 80.2239 31.2558Z" fill="#2F2E41"/>
<path d="M76.8075 38.9044L74.8943 44.1452L70.3846 53.9186C70.3846 53.9186 68.3347 60.2925 69.9746 60.2925C71.6145 60.2925 72.8444 54.2019 72.8444 54.2019L77.9008 45.9866L80.7706 38.6212L76.8075 38.9044Z" fill="#FFB8B8"/>
<path d="M67.7198 86.2132C69.0406 86.2132 70.1113 85.5791 70.1113 84.7968C70.1113 84.0145 69.0406 83.3804 67.7198 83.3804C66.399 83.3804 65.3282 84.0145 65.3282 84.7968C65.3282 85.5791 66.399 86.2132 67.7198 86.2132Z" fill="#2F2E41"/>
<path d="M86.032 86.2132C87.3528 86.2132 88.4235 85.5791 88.4235 84.7968C88.4235 84.0145 87.3528 83.3804 86.032 83.3804C84.7112 83.3804 83.6405 84.0145 83.6405 84.7968C83.6405 85.5791 84.7112 86.2132 86.032 86.2132Z" fill="#2F2E41"/>
<path d="M80.0086 21.3602H80.0086C79.8186 21.3606 79.6291 21.3802 79.4428 21.4186C79.1061 21.2492 78.7369 21.161 78.3626 21.1605H78.2646C76.3744 21.1605 74.8422 22.9333 74.8422 25.1201V25.1201H75.4755L75.5778 24.3132L75.7278 25.1201H76.2554C76.0912 25.7676 76.0089 26.4344 76.0103 27.1039V31.1341H76.9679L77.5223 29.6409L77.3837 31.1341H83.5386L84.0426 29.7766L83.9166 31.1341H84.6096V27.9697C84.6096 24.3194 82.5496 21.3602 80.0086 21.3602Z" fill="#2F2E41"/>
</g>
<defs>
<clipPath id="clip0">
<rect width="124.696" height="87.5493" fill="white" transform="translate(0 0.504395)"/>
</clipPath>
</defs>
</svg>
